<?xml version="1.0" standalone="no"?>
<!DOCTYPE svg PUBLIC "-//W3C//DTD SVG 1.0//EN" "http://www.w3.org/TR/2001/REC-SVG-20010904/DTD/svg10.dtd">
<svg xmlns="http://www.w3.org/2000/svg" xmlns:xlink="http://www.w3.org/1999/xlink" id="body_1" width="74" height="82">

<g transform="matrix(0.54814816 0 0 0.54666674 0 0)">
	<g transform="matrix(1 0 0 1 0 0)">
	</g>
    <path transform="matrix(1 0 0 1 0 0)"  d="M102.538 100.415C 103.209 100.415 104.15 100.755 103.914 101.319C 103.68 101.887 103.413 102.840004 102.883 102.904C 102.354004 102.964 101.323006 102.215996 101.323006 101.55C 101.323006 100.88401 101.868 100.415 102.538 100.415z" stroke="none" fill="#0066CC" fill-rule="nonzero" />
	<g transform="matrix(1 0 0 1 0 0)">
	</g>
    <path transform="matrix(1 0 0 1 0 0)"  d="M44.217 118.689C 44.954 119.057 45.690998 119.057 46.427998 118.689L46.427998 118.689L45.874996 117.819L44.611996 116.715004C 43.926994 116.34701 43.373997 116.688 42.952995 117.739006L42.952995 117.739006L44.217 118.689z" stroke="none" fill="#0066CC" fill-rule="nonzero" />
	<g transform="matrix(1 0 0 1 0 0)">
	</g>
    <path transform="matrix(1 0 0 1 0 0)"  d="M81.96 144.271C 81.75 144.63899 81.881 145.00699 82.356 145.375C 82.83 145.746 83.223 145.823 83.539 145.613L83.539 145.613L81.96 144.271z" stroke="none" fill="#6F7072" fill-rule="nonzero" />
	<g transform="matrix(1 0 0 1 0 0)">
	</g>
    <path transform="matrix(1 0 0 1 0 0)"  d="M133.047 71.312C 133.468 68.46999 133.179 66.67999 132.18 65.94299C 131.12599 65.20599 129.836 65.44299 128.31099 66.65299C 127.414986 66.17899 126.205986 66.62699 124.677986 67.994995C 124.941986 67.311 124.96699 66.70599 124.75699 66.17999C 126.12599 65.54799 127.00799 64.84999 127.402985 64.08799C 127.79798 63.32499 127.99599 62.12699 127.99599 60.49499C 128.15298 59.49499 129.07399 57.70499 130.75899 55.12599C 131.91599 52.54599 131.10098 51.650993 128.31198 52.44099C 129.83698 51.07199 130.60098 49.88699 130.60098 48.88699C 130.70598 47.938988 130.31198 46.72899 129.41599 45.25499C 129.04799 44.41299 128.49498 44.25499 127.75799 44.78099C 128.02098 44.25499 128.16599 43.62299 128.193 42.88599C 128.219 42.14999 127.731995 40.59599 126.731995 38.22699C 126.575 35.12199 125.83599 33.83199 124.521996 34.35799C 124.311 32.72699 123.784 31.17299 122.94199 29.69999C 121.67799 27.804989 120.67899 27.30399 119.94299 28.19999C 117.88799 25.14699 115.965996 23.88399 114.17799 24.408989C 114.12399 23.093988 113.676994 21.908989 112.83499 20.856989C 112.36099 18.856989 111.78099 17.461988 111.09799 16.67099C 110.149994 16.30299 109.49299 16.82999 109.12399 18.25099C 108.965996 17.09299 108.59799 15.88199 108.01799 14.6179905C 107.43899 13.35499 106.51899 12.69799 105.25499 12.644991C 104.78099 12.59199 104.33399 12.670991 103.91099 12.881991C 103.069984 12.354991 102.359985 12.091991 101.77999 12.091991C 99.98999 10.196991 98.35899 10.038992 96.884995 11.616991L96.884995 11.616991L96.647 9.96C 96.12 8.012 95.068 7.591 93.48801 8.6970005C 90.91 6.0120006 88.699005 4.2480006 86.856 3.4060006C 85.329 2.8800006 84.328 3.0110006 83.855 3.8020005C 83.066 3.0120006 82.222 2.5110006 81.329 2.3010006C 80.433 2.0910006 79.592 1.8540006 78.803 1.5900006C 77.592 1.5380006 77.066 2.1960006 77.223 3.5640006C 75.328 3.6700006 74.026 3.9990005 73.314 4.5510006C 72.604004 5.1040006 72.420006 5.8810005 72.762 6.8810005C 73.104004 7.8810005 73.880005 8.6970005 75.092 9.328001C 74.776 9.697001 74.645004 10.276001 74.69701 11.065001C 74.75001 11.8550005 75.591 12.5130005 77.22201 13.0390005C 78.434006 13.3550005 79.61801 13.3810005 80.77601 13.118001C 80.51301 14.328001 80.934006 15.092001 82.03901 15.408001C 83.56501 16.988 85.461006 17.383001 87.725006 16.593L87.725006 16.593L87.48801 18.093L90.56801 19.356C 90.67301 20.831001 91.35701 21.883001 92.62201 22.514L92.62201 22.514L93.82901 23.036C 93.56801 23.066 92.43701 24.001 92.42201 24.15C 92.17101 24.442 91.49401 25.896 93.139015 26.217C 94.391014 26.359999 95.76202 26.487999 97.07802 26.46C 97.111015 26.848 97.347015 27.477999 97.597015 27.926998C 97.822014 28.401999 98.37202 29.093998 99.294014 30.093998C 100.14902 31.023998 101.76102 31.941998 103.12102 32.518997C 103.03302 32.616997 102.66002 33.642998 102.319016 34.586C 101.902016 35.738 101.68601 37.607 102.49101 38.61C 102.31601 38.524002 101.56201 39.051003 101.291016 39.469C 100.30901 40.989002 102.43902 43.169003 102.777016 43.919003C 102.612015 43.9 102.02302 44.198 101.71301 44.420002C 100.98101 44.941 101.23001 47.558002 103.31101 48.005C 103.832016 48.256 106.223015 49.645 107.416016 50.861C 107.64902 51.099 108.319016 52.359 109.27402 53.613C 109.78402 54.282997 110.32302 55.412 111.571014 55.44C 112.71101 59.133 114.59001 62.66 116.84201 66.104C 116.83101 66.211 118.89901 68.406 119.64201 70.393C 119.391014 71.678 119.42001 72.783 119.415016 72.846C 119.14401 75.385 118.68602 77.716 118.04601 79.837C 115.806015 78.756 115.44202 80.229996 115.10902 81.678C 115.166016 81.605 114.068016 81.464005 113.92202 81.969C 114.01902 81.093 112.57702 80.322 111.92302 80.787C 111.90502 80.798004 111.20402 81.292 110.77002 81.622C 110.62302 81.734 110.49402 80.899 110.44602 80.275C 110.42402 79.847 110.34002 78.381004 110.61302 77.807C 110.65602 77.713 111.18502 77.08 111.51302 76.492C 112.178024 75.299995 111.692024 71.544 110.871025 68.945C 110.62402 68.166 110.11202 67.794 109.663025 67.617C 109.481026 67.546 108.302025 67.613 108.07703 68.518C 108.01402 68.004 107.18403 67.699 106.56902 67.553C 104.842026 67.143 102.995026 70.46 103.20102 73.541C 101.944016 72.545 100.28602 72.862 100.48702 74.589C 100.76902 77.004 104.40202 81.296 104.512024 83.23399C 103.425026 82.26299 100.96002 82.23899 100.95702 84.593994C 100.955025 85.31 101.54002 86.522995 101.78403 87.04099C 101.28103 89.551994 104.17902 91.39299 106.54403 93.76299C 106.50203 94.884995 106.88703 94.899994 107.24803 95.33699C 106.81803 95.99999 104.17003 100.17199 104.13503 100.27099C 104.007034 100.32399 102.17903 99.29899 101.577034 99.82999C 100.937035 100.39699 100.41804 101.16898 100.118034 101.62798L100.118034 101.62798L100.435036 104.552986C 100.646034 105.762985 100.00004 107.11899 98.49904 108.61599C 96.99904 110.11699 96.01204 111.497986 95.53804 112.76299C 95.27504 113.70999 94.24804 114.73799 92.46004 115.841995C 92.355034 115.52699 91.93304 115.024994 91.19604 114.340996C 91.091034 114.131 90.880035 114.05399 90.56403 114.106995C 88.77403 114.579994 85.16803 116.643 79.74603 119.328995C 78.803 119.806 77.46 121 75.723 124L75.723 124L72.644 124C 71.800995 123 70.907 122.383 69.958 121.541C 69.274 121.015 68.063 120.959 66.327 121.853C 64.69501 121.48399 63.064003 121.704994 61.431004 122.756C 60.431004 123.125 59.694004 123.14 59.221004 122.93L59.221004 122.93L55.352005 118.716C 47.351006 115.347 42.981003 113.83501 42.244003 114.203C 41.455 114.677 40.876003 115.352005 40.508003 116.246C 39.718002 115.879005 38.534004 114.875 36.954002 113.241005L36.954002 113.241005L34.507004 110.477005C 32.717003 108.478004 31.980003 106.58101 32.296005 104.789L32.296005 104.789L32.691006 102.342C 32.744007 101.97401 32.691006 101.68301 32.533005 101.473C 31.954004 100.842 30.929005 100.463 30.402004 100.354996C 30.289003 100.309 29.947004 100.189995 29.558004 101.617C 29.661005 101.95699 27.032005 98.153 26.996004 98.022995C 27.704004 97.26499 28.960005 95.018 29.677004 92.406C 30.488005 89.447 30.864004 86.182 30.831003 84.934C 30.955004 84.7 30.987003 84.636 31.130003 84.495995C 32.354004 83.55699 33.907 74.768 33.56 72.65399C 33.402 71.81099 33.204002 71.37799 32.967003 71.35099C 32.730003 71.32399 32.506004 71.39099 32.296 71.54799L32.296 71.54799L32.77 70.59999C 33.033 69.91499 33.033 69.468994 32.77 69.25799C 32.613 69.09099 31.188 69.11299 29.951 69.73999C 29.800001 68.36799 29.15 66.35599 28.816 65.62799C 28.705 65.384995 28.362 65.64599 28.351 65.65199C 26.140999 66.99099 25.159 69.92199 24.373 73.55699L24.373 73.55699L23.738998 74.13799C 20.904999 77.688995 18.636997 81.82299 17.668999 86.47199C 17.194998 85.732994 16.925 84.66599 16.503998 83.270996C 16.082998 81.879 15.951998 80.94299 16.108997 80.46999C 16.529997 79.73399 16.398998 79.048996 15.713997 78.41599C 15.186996 77.88899 14.502996 75.520996 13.660997 71.30999C 13.712997 70.20499 14.160997 68.54599 15.002997 66.33599C 15.844997 64.12499 17.252998 61.32499 19.095997 58.165993C 19.195997 58.02899 20.012997 57.141994 20.263996 57.07899C 22.997995 56.39999 35.142998 40.66299 33.868996 33.33599C 33.666996 34.21399 39.084995 24.688992 39.520996 22.730991L39.520996 22.730991L40.190994 22.51299L40.980995 22.19799C 43.612995 21.14499 45.850994 20.02099 47.903996 19.07299L47.903996 19.07299L51.087997 17.38199C 53.298996 16.43499 55.405 15.144991 57.405 13.512991C 59.51 11.670991 60.642 9.74999 60.8 7.748991C 60.432 7.274991 59.353 7.011991 57.563 6.958991C 58.511 5.905991 59.011 4.800991 59.063 3.6419911C 58.378 2.694991 56.326 2.5369911 52.904 3.168991C 49.325 4.063991 46.192 5.458991 43.508 7.353991C 40.77 9.090991 38.309 11.209991 36.125 13.709991C 33.94 16.209991 32.19 18.802992 30.875 21.487991L30.875 21.487991L32.454 17.855991C 33.244 16.118992 34.086 14.091991 34.981 11.775991C 35.244 10.670992 35.257 9.880991 35.02 9.406992C 34.784 8.933992 34.27 8.801992 33.481 9.0119915C 32.639 9.221992 31.112 10.3279915 28.901 12.3279915C 26.479 14.802992 24.334 17.855991 22.466 21.487991C 20.597 25.118992 19.32 27.987991 18.636 30.09399C 19.004 27.72599 18.952 25.69899 18.477999 24.01399C 18.214998 23.32899 17.635998 23.14499 16.741999 23.46099C 15.898998 24.04099 15.056999 24.90899 14.214998 26.06699C 13.372997 27.224989 12.556998 28.34399 11.767998 29.42199C 10.977998 30.50199 10.042997 32.04099 8.964998 34.04199C 7.8859982 36.04199 6.9379983 38.411987 6.1219983 41.147987C 5.3059983 43.885986 4.6869984 47.517986 4.2659984 52.043987C 4.0029984 54.939987 4.2139983 58.045986 4.8979983 61.361988C 5.7399983 64.677986 6.5819983 67.12599 7.4239984 68.70499C 8.266998 70.28499 9.055998 71.205986 9.793999 71.46899C 10.266998 72.62698 10.898998 74.54899 11.688999 77.234985C 12.109999 78.49699 12.293999 79.457985 12.240999 80.11699C 12.188999 80.77199 12.36 81.234985 12.754999 81.49899C 13.15 81.76199 13.477999 82.286995 13.741999 83.076C 14.425999 85.604 15.346998 87.946 16.505 90.105995C 16.295 91.26299 16.189999 92.42 16.189999 93.576996C 13.663999 86.26399 11.609999 80.73399 10.030998 76.995995C 6.9779983 70.20699 4.5819983 67.101 2.8449984 67.67999C 2 67.996 1.474 68.759 1.264 69.97C 1.2110001 70.443 1.2110001 71.654 1.264 73.601C 1.3160001 75.548996 1.5 77.603 1.816 79.758995C 3.396 86.760994 6.107 92.605995 9.95 97.28999L9.95 97.28999L15.714 104.08099C 16.872 105.23799 17.977 106.093994 19.029999 106.644C 20.082998 107.198 21.057 107.340996 21.952 107.078995C 23.267 109.186 24.925999 111.395 26.927 113.713C 28.19 115.659 29.507 116.58099 30.875 116.476C 31.454 117.739 32.322 118.372 33.481 118.372L33.481 118.372L34.665 118.215004C 36.296 119.79301 37.771 121.055 39.086002 122.005005L39.086002 122.005005L37.586002 126.269005C 34.954002 126.637 32.532 126.84701 30.321003 126.9C 28.268003 125.424 25.374002 123.425 21.636002 120.898L21.636002 120.898L21.399002 116.161C 21.293001 114.53001 21.583002 113.16 22.267002 112.056C 22.425003 111.161 21.925003 110.344 20.767002 109.609C 19.030003 108.767 18.292002 108.423004 17.555002 108.582C 17.240002 108.686 17.501001 108.978004 17.501001 109.451004L17.501001 109.451004L17.501001 109.746C 17.501001 109.507 17.604002 109.427 17.906002 109.528C 20.116001 110.11 21.114002 110.846 20.955002 111.741C 20.270002 112.896996 19.940002 114.215996 19.993002 115.687996L19.993002 115.687996L20.064001 119.794C 17.274002 117.952995 14.269001 116.318 11.059001 114.897995C 11.427001 114.84599 11.847001 114.80299 12.320001 114.77899C 12.794001 114.75199 13.109 114.58299 13.267 114.26699C 13.424 113.94799 13.134 113.76599 12.397 113.71299C 10.766001 113.71299 9.714001 113.84299 9.239 114.10899C 8.871 114.52899 8.949 114.97399 9.476001 115.44799C 13.266001 117.343994 16.608002 119.23799 19.504002 121.135994C 24.083002 124.032 27.636002 126.398994 30.163002 128.24199C 32.638 128.18999 36.111 127.845985 40.586002 127.21499L40.586002 127.21499L47.377003 125.95299C 50.166004 125.42399 53.062004 124.97799 56.062004 124.609985C 57.167004 124.45199 58.562004 124.345985 60.248005 124.29498C 61.932007 124.24198 63.485004 124.10799 64.906006 123.89898C 66.27501 126.47898 67.117004 128.74098 67.43301 130.68997C 67.591 131.68997 67.45901 132.24397 67.03801 132.34897C 60.77301 134.66197 56.27301 136.12396 53.53601 136.72797C 50.79901 137.33397 48.324013 137.87396 46.11301 138.34796C 40.58701 139.34695 35.13801 140.16396 29.76901 140.79497C 28.400011 140.42697 24.452011 138.39996 17.92501 134.71497C 13.292011 131.92796 10.055011 129.66197 8.213011 127.92696C 6.108011 125.661964 5.265011 124.29497 5.687011 123.81796C 7.055011 121.55596 7.9770107 119.55396 8.45001 117.81896C 8.66001 117.08296 8.713011 116.50496 8.60801 116.08396C 8.029011 114.29196 8.45001 113.369965 9.87201 113.31696C 13.39801 113.106964 15.76801 113.05396 16.97801 113.159966C 17.50401 113.21197 17.84701 113.05496 18.00401 112.68597L18.00401 112.68597L19.189009 110.31897L18.478008 110.00397L17.51101 111.58197L17.501009 109.98597L17.501009 112.05497L9.501009 112.21197C 8.816009 112.21197 8.002009 112.47497 7.553009 113.00097C 7.106009 113.52697 6.969009 114.58197 7.389009 116.159966C 7.442009 116.73797 7.354009 117.23997 7.248009 117.660965C 6.880009 119.34396 5.875009 121.397964 4.295009 123.81696C 4.085009 124.188965 4.1620092 124.73996 4.5560093 125.47596C 4.952009 126.21496 5.9310093 127.37196 7.5100093 128.95096C 8.195009 129.63496 9.230009 130.47896 10.62501 131.47795C 12.02001 132.47694 14.47901 134.00595 18.00601 136.05695C 22.16401 138.53294 26.137009 140.58295 29.92701 142.21794C 30.71701 142.26994 35.98001 141.55894 45.71801 140.08594L45.71801 140.08594L45.79701 140.95094C 43.007008 143.05794 41.21701 143.92894 40.42801 143.55594C 39.32201 143.66093 38.98001 144.47794 39.402008 146.00694C 39.717007 146.69095 40.29701 147.16394 41.13801 147.42694L41.13801 147.42694L42.16501 148.61194L45.08601 150.34793C 46.19101 150.66293 47.24401 150.66293 48.24401 150.34793C 49.192013 149.97993 49.824013 149.16193 50.13901 147.90092L50.13901 147.90092L50.450012 147.58893L53.614014 144.42593L55.903015 142.69093C 57.693016 142.37593 58.851013 141.74493 59.378014 140.79494C 59.483013 139.95294 59.720013 139.42793 60.088013 139.21693L60.088013 139.21693L62.852013 137.32094C 62.957012 137.05794 64.08901 137.50694 66.24802 138.66394C 67.30102 138.92694 68.222015 138.87395 69.01202 138.50594L69.01202 138.50594L71.06502 137.32094C 72.90802 137.74493 76.14402 140.03494 80.777016 144.19293C 80.724014 144.66693 81.014015 145.21593 81.64501 145.85094C 82.01301 146.32494 83.014015 146.71693 84.64601 147.03294L84.64601 147.03294L85.75001 149.08794L86.85601 149.48393C 88.48601 149.53693 90.01301 148.95493 91.43501 147.74493L91.43501 147.74493L93.17201 147.19093C 94.06701 146.50693 94.46201 145.82294 94.35801 145.13893L94.35801 145.13893L93.64601 144.42693L92.14501 144.03392C 90.24901 143.13692 88.33101 141.92792 86.38201 140.40192L86.38201 140.40192L85.11801 139.45192C 90.85601 140.45493 97.987015 141.24292 106.516014 141.82191C 107.568016 142.03192 108.97601 141.49191 110.74001 140.20192C 112.50301 138.91492 117.833015 135.11092 126.72901 128.79292C 128.046 127.372925 129.098 125.74192 129.88701 123.89793C 129.098 123.16193 128.40001 122.109924 127.795006 120.73893C 127.19101 119.37193 126.80801 118.21493 126.65001 117.26393C 126.43901 116.368935 126.41301 115.56693 126.57101 114.854935C 126.728004 114.146935 126.492004 113.47394 125.86101 112.841934C 125.59601 112.47394 124.991005 112.23894 124.045006 112.133934C 122.36001 111.97694 120.465004 112.00093 118.35901 112.21094C 117.35801 112.105934 116.78001 111.87094 116.62201 111.49894L116.62201 111.49894L116.70101 109.60594C 116.85901 108.76394 116.62201 108.39594 115.99101 108.501945C 113.67401 109.07995 112.279015 109.65794 111.804016 110.236946C 111.12002 110.972946 111.14702 111.76195 111.88502 112.60695C 112.46302 113.13195 112.752014 113.73595 112.752014 114.42295C 112.43701 117.89795 112.14802 120.23895 111.88502 121.44895C 108.040016 124.50295 105.43502 126.37195 104.06602 127.054955C 102.96202 127.42295 100.488014 127.26495 96.64502 126.580956C 95.80202 125.844955 95.19702 124.57896 94.82902 122.790955C 96.14402 122.00195 97.540016 121.051956 99.014015 119.94695C 100.014015 119.789955 100.85702 119.59296 101.540016 119.35395C 102.22601 119.11995 102.56702 118.47395 102.56702 117.41895C 103.251015 117.15495 103.751015 116.57695 104.06602 115.68295L104.06602 115.68295L108.64702 110.15795C 110.12002 108.89195 111.72502 108.15595 113.46202 107.944954C 115.567024 107.78796 118.30602 106.60195 121.67402 104.39295C 122.20102 103.81095 122.20102 102.99695 121.67402 101.942955C 122.67502 101.36395 124.30702 99.733955 126.57002 97.04695C 127.46402 95.78495 127.67402 94.38995 127.20102 92.86395C 129.30602 90.33595 130.49202 88.33795 130.75502 86.860954C 130.96503 85.54695 130.93903 84.122955 130.67603 82.59795C 131.67502 81.96595 132.37303 81.42596 132.77002 80.97795C 133.16502 80.53295 133.36102 79.91195 133.36102 79.12295C 133.36102 78.334946 133.07103 77.67595 132.49303 77.14895C 134.022 74.997 134.206 73.049 133.047 71.312zM59.483 8.302C 59.483 9.302 58.983 10.407 57.772003 11.618C 55.929005 13.3029995 53.729004 14.856 50.965004 16.277C 48.201 17.699 44.5 19.382 40.5 21.33L40.5 21.33L40.5 20.857C 45.5 16.857 50.53 13.593 55.11 11.065001C 56.321 10.328001 55.849 10.118 54.428 10.433001C 52.848 11.223001 51.138 12.1970005 49.244003 13.3550005C 46.085003 15.408001 43.019005 17.435001 40.019005 19.435001L40.019005 19.435001L40.104004 18.487001C 46.105003 13.2230015 51.030003 9.829001 54.873005 8.301002C 56.769 7.881 58.377 7.881 59.483 8.302zM41.573 10.197C 44.442 7.8279996 47.876003 5.9859996 51.877003 4.6689997C 53.825005 4.1429996 55.509003 3.9059997 56.930004 3.9589996C 57.615005 4.1169996 57.799004 4.5109997 57.483006 5.1429996L57.483006 5.1429996L55.746006 7.4329996C 54.219006 7.6439996 52.127007 8.513 49.469006 10.039C 46.810005 11.566 43.954006 13.592999 40.902004 16.119L40.902004 16.119L39.797005 16.83C 39.218006 16.407999 38.165005 16.593 36.639004 17.382C 41.482002 13.329 45.693005 10.249001 49.273003 8.144C 51.589005 6.986 52.931004 6.17 53.300003 5.696C 52.141003 6.012 50.510002 6.737 48.404003 7.868C 46.298004 8.999001 42.824005 11.355 37.981003 14.934L37.981003 14.934L33.322002 19.119C 35.953 15.54 38.704 12.566 41.573 10.197zM36.717 18.962C 37.559 18.487 38.138 18.303 38.454 18.409C 38.663998 18.936 38.717 19.659 38.612 20.581001C 38.507 21.503002 37.822 23.437 36.558 26.384L36.558 26.384L33.636997 32.07C 31.583998 32.333 29.636997 33.281 27.793997 34.913C 28.741997 33.281998 29.886997 31.412998 31.228996 29.307C 32.571995 27.202 34.663998 24.043 37.506996 19.831999C 37.979996 19.041998 37.993996 18.845 37.546997 19.239998C 37.098995 19.635998 35.900997 21.147999 33.954 23.780998C 32.005997 26.411999 29.401 30.492998 26.137 36.018997C 25.241999 37.387997 23.095999 40.685997 19.556 46.115997L19.556 46.115997L19.987999 44.892L24.731998 36.492996L29.294998 27.964996C 31.452 24.12 33.927 21.12 36.717 18.962zM17.371 38.306C 19.476 34.885 22.004 30.042 24.952 23.778C 25.847 21.935 27.161999 19.855999 28.9 17.541C 29.425999 16.329 29.137 16.355 28.031 17.62C 25.452 20.831001 22.451 25.911001 19.029999 32.859L19.029999 32.859L20.529999 29.069C 20.793999 28.227001 21.635998 26.319 23.057 23.344C 24.477999 20.369999 25.873 18.014 27.241999 16.277C 28.610998 14.540001 29.557999 13.408001 30.085 12.882C 31.98 11.25 33.085 10.4869995 33.401 10.591C 33.664 10.802 33.743 11.143999 33.638 11.617L33.638 11.617L29.769001 21.567C 27.242 26.462 23.926 31.568 19.82 36.884C 18.083 38.78 17.004 39.989998 16.582 40.517C 16.162 41.043 15.820001 41.543 15.556001 42.017L15.556001 42.017L15.872001 40.675L17.371 38.306zM19.504 47.309C 18.397999 49.362 17.555 51.204 16.977 52.836L16.977 52.836L16.345 52.757L18.002998 47.625L19.504 47.309zM13.661 60.731L14.213 58.440998L14.687 56.150997L15.950001 55.913L14.370001 60.177998L13.265001 63.887997L13.661 60.731zM13.344 52.125C 13.713 49.756 14.213 47.598 14.844 45.651L14.844 45.651L15.476 46.441L13.344 52.125zM10.344 67.837L10.029 67.206C 9.714001 66.732 10.265 63.652 11.687 57.967003C 11.16 62.179 10.713 65.469 10.344 67.837zM9.16 63.337C 8.738 61.179 8.989 56.638 9.91 49.716003C 10.830999 42.794003 12.002 37.859 13.423 34.911003C 14.108001 33.385002 14.081 33.147003 13.344 34.200005C 10.132999 39.675003 8.264 47.755005 7.739 58.441C 7.633 62.178 7.844 64.876 8.37 66.534004C 8.897 68.192 9.502 69.15301 10.186 69.416C 10.554 69.626 10.948999 69.6 11.373 69.337C 11.325 69.323 11.074 70.756 11.128 71.073C 9.718 70.439995 8.683001 69.368996 8.054001 67.876C 7.422001 66.376 6.830001 64.416 6.277001 61.993C 5.724001 59.572 5.501001 56.677002 5.606001 53.308C 5.870001 49.308 6.448001 45.412 7.343001 41.621C 8.659 36.357 11.343 31.356998 15.397001 26.619C 16.292002 25.619 16.845001 25.382 17.056002 25.907999C 17.266 28.012999 17.253002 30.053 17.016 32.027C 16.779 34.001 16.266 36.198 15.476001 38.621002C 13.422001 45.464 12.186001 50.069 11.765001 52.439003C 10.976 55.231 10.107 58.862 9.16 63.337zM11.5 70.918L11.5 69.654C 13.5 67.496 13.265 65.443 14.000999 63.495L14.000999 63.495L16.774 56.389L19.994 48.888C 21.730999 45.519 24.182999 41.677002 27.289 37.36C 29.131 35.203 30.779 34.044 32.198997 33.886C 32.568996 34.413002 32.575996 35.492 32.206997 37.123C 31.838997 38.755 31.209997 40.466 30.314997 42.255C 30.254997 42.277 30.181997 42.309002 30.262997 42.353C 26.859997 48.620003 23.560997 53.166 20.366997 55.994L20.366997 55.994L25.812996 47.15L28.412996 42.413002C 29.412996 40.623 29.584997 39.991 28.952997 40.518C 23.636997 48.519 20.426998 53.546 19.373997 55.599003C 18.320997 57.652004 17.243996 59.573 16.244997 61.363003C 15.243997 63.153004 14.237997 64.548004 13.9229965 65.548004C 13.607996 66.548004 13.5 68.338 11.5 70.918zM32.689 74.155C 32.531 76.524 32.003998 79.472 31.109999 82.999C 31.057 80.103 30.925999 78.155 30.714998 77.154L30.714998 77.154L31.425999 75.181C 31.478998 74.496 31.345999 74.47 31.029999 75.102L31.029999 75.102L30.557 75.968994L30.477999 74.39099L31.661999 72.88999C 32.452 72.102 32.795 72.522 32.689 74.155zM31.505 69.891C 32.189 69.733 32.32 70.048996 31.9 70.838L31.9 70.838L30.4 73.048996C 30.295 72.154 30.163 71.391 30.005 70.757996C 30.532 70.391 31.031 70.102 31.505 69.891zM25.267 73.602C 26.372 69.232994 27.425 66.917 28.425 66.654C 29.005 68.181 29.479 71.01 29.847 75.142C 30.215 79.276 30.215 82.999 29.847 86.317C 29.373 90.528 28.663 93.368004 27.715 94.844L27.715 94.844L26.689 97.052C 26.689 93.788 26.729 91.130005 26.807 89.079C 26.886 87.024 26.965 84.3 27.043999 80.906006C 27.123 77.51001 27.345999 73.65401 27.714998 69.338005C 27.924997 68.285 27.873 68.049 27.556997 68.628006C 26.713997 72.99801 26.213997 78.603004 26.055998 85.44701L26.055998 85.44701L25.976997 89.94601L25.818996 96.106L24.792995 94.920006C 24.055996 91.23501 23.739996 87.368004 23.844995 83.315C 24.004 80.313 24.478 77.077 25.267 73.602zM18.279 86.828C 19.147999 82.957 21.133999 78.946 24.24 74.786C 23.714 76.944 23.424 78.55 23.371 79.601006C 21.055 83.602005 19.265 87.578 18.002 91.52601C 17.687 92.73601 17.423 94.18301 17.212 95.86701C 17.056 93.711 17.411 90.695 18.279 86.828zM23.452 93.42L21.715 91.211L22.978 88.052C 22.925 89.787 23.083 91.579 23.452 93.42zM39.401 126.031L40.506 122.872L44.138 125.242004L39.401 126.031zM48.086 124.453L42.163998 120.898L36.715996 117.265L35.689995 115.922C 35.373993 115.554 34.939995 115.477 34.386993 115.687C 33.833992 115.897995 33.399994 115.58199 33.082993 114.741C 31.661993 115.582 30.213993 115.266 28.740993 113.791L28.740993 113.791L26.134995 110.635L23.687994 106.449005L22.818995 105.817C 22.319994 106.136 21.766994 106.249 21.161995 106.161C 20.131994 106.024 18.950994 105.341 17.765995 104.082C 17.028996 103.394 15.448996 100.685 13.027995 95.947C 9.818 89.84 7.633 85.236 6.475 82.13C 5.633 79.548996 5.08 77.919 4.817 77.235C 4.553 76.55 4.448 76.537 4.5 77.194C 4.553 77.852 4.948 79.328 5.685 81.618C 6.421 83.907 7.79 87.26299 9.791 91.684C 11.527 95.263 13.239 98.528 14.923 101.473C 11.027 97.262 8.211 93.313995 6.474 89.629C 4.737 85.995995 3.578 82.63 3 79.524C 2.737 78.418 2.578 76.719 2.525 74.43C 2.473 72.141 2.499 70.865 2.604 70.6C 2.867 69.81 3.236 69.469 3.71 69.574C 4.025 69.574 4.75 70.324 5.881 71.824C 7.013 73.324 8.552 76.694 10.5 81.932C 12.448 87.166 13.645 90.603 14.093 92.237C 14.541 93.867 14.988001 95.288 15.435 96.501C 15.883 97.71 16.422 98.948 17.054 100.21C 18.001001 102.104 18.949001 103.394 19.897001 104.081C 21.146002 104.965004 22.057001 105.122 22.656002 104.548004L22.656002 104.548004L19.768002 99.383C 19.506002 99.268005 19.210001 99.246 18.87 99.341C 18.812 99.345 18.777 99.323006 18.723001 99.323006C 18.720001 99.323006 18.719002 99.34401 18.718002 99.34401C 18.597002 99.34001 18.513002 99.29801 18.407001 99.281006C 18.288002 99.26 18.155 99.25001 18.056002 99.20801C 17.963001 99.16901 17.903002 99.09201 17.828001 99.032005C 17.739 98.962006 17.637001 98.906006 17.573002 98.80701C 17.515001 98.71901 17.494001 98.59301 17.457003 98.48501C 17.419003 98.37301 17.363003 98.27801 17.347002 98.14501C 17.313002 97.87801 17.320002 97.56601 17.370003 97.208015C 17.475002 96.26202 17.818003 94.63101 18.396004 92.31302C 19.555004 88.41702 21.212004 84.55002 23.371004 80.70802C 23.108004 82.39102 22.976004 83.81102 22.976004 84.97202C 21.028004 89.34003 19.607004 92.86803 18.712004 95.550026C 18.238003 97.49902 18.264004 98.44603 18.791004 98.39403L18.791004 98.39403L19.422005 98.078026L18.949005 96.97403L19.264006 96.10503L20.212006 97.76302L20.765005 97.36702L21.239006 98.07802L20.765005 98.790016L24.318005 103.92001L25.187004 103.21201L25.819004 103.92001C 24.766005 104.97601 24.344004 105.65901 24.555004 105.97501C 25.504004 107.710014 26.371004 109.10601 27.161003 110.16201C 28.741003 112.47501 30.030003 113.13501 31.030003 112.13601C 31.345003 111.87301 31.741003 111.92601 32.214005 112.29401C 32.688004 112.662 33.215004 113.451004 33.794006 114.66L33.794006 114.66L33.715008 112.844L30.794008 110.081L29.135008 106.765C 27.766008 104.819 26.793007 103.318 26.214008 102.266C 25.635008 101.211 24.911009 99.949 24.043009 98.476C 23.175 97 22.109 95.341 20.846 93.5L20.846 93.5L21.083 92.631L23.61 95.709C 25.874 98.604996 27.465 100.804 28.386002 102.305C 29.307001 103.805 29.847002 104.159 30.005001 103.37L30.005001 103.37L30.479002 101.87L31.189001 102.26601L30.716002 105.34501L30.558 106.29101C 30.504 107.02701 30.65 107.462006 30.992 107.59601C 31.334 107.725006 31.637001 108.213005 31.900002 109.05401C 32.058002 109.58001 32.887 110.67401 34.388 112.33201C 35.888 113.990005 37.467 115.38601 39.125 116.51601C 40.784 117.64801 42.152 118.57101 43.231 119.282005C 44.311 119.991005 44.823997 120.688 44.771 121.372L44.771 121.372L46.271 121.687004L45.877 119.79401L46.823997 119.55501C 47.297997 119.87101 47.692997 120.45301 48.009 121.29401C 49.378 122.34601 50.562 123.188 51.562 123.81801L51.562 123.81801L48.086 124.453zM22.188 98.791L22.663 98.318L24.873001 102.027L24.635 102.501L22.188 98.791zM25.899 106.214L26.768 105.105995L28.821 108.031L30.005999 110.162994L30.401 111.34499C 29.664999 110.977 29.032999 110.425995 28.505 109.687L28.505 109.687L27.241999 108.032L25.899 106.214zM53.377 123.503L49.981 121.137C 48.613 119.503 47.613 118.322 46.981 117.581C 46.35 116.845 45.744 116.318 45.166 116.003C 44.322 115.53 43.639 115.372 43.112 115.53C 42.744 115.633995 42.35 116.160995 41.928 117.107L41.928 117.107L41.77 116.950005C 41.98 116.05501 42.31 115.50201 42.757 115.29101C 43.204 115.08101 43.771 115.13401 44.455 115.449005L44.455 115.449005L48.244003 117.26501L54.719 119.712006C 56.299004 121.399 57.272003 122.55601 57.640003 123.187004C 56.325 123.346 54.903 123.45 53.377 123.503zM55.43 140.007C 53.219 142.167 50.719 144.218 47.929 146.167L47.929 146.167L46.981 145.852C 48.613 144.849 50.929 143.21901 53.93 140.95401L53.93 140.95401L55.273 139.45401L54.562 139.37701C 53.562 140.27101 52.417 141.17902 51.127 142.10101C 49.836998 143.02402 48.350998 143.904 46.666 144.74602L46.666 144.74602L44.375 145.85301L44.771 146.32701L46.508 146.561C 47.508 147.19301 47.929 147.828 47.771 148.45801C 47.244 149.24701 46.402 149.352 45.245 148.77301L45.245 148.77301L43.35 147.74602C 42.664997 147.06201 41.981 146.58902 41.296997 146.32602L41.296997 146.32602L40.506996 145.69502L40.821995 144.97803L43.191 146L43.902 146L43.507 144.504L46.35 142.731C 47.086 142.46901 47.403 142.001 47.296997 141.37001L47.296997 141.37001L47.533997 139.938C 48.743996 140.201 50.059998 139.99701 51.481995 139.341C 52.902996 138.682 54.244995 138.299 55.507996 138.194C 56.299 138.72 56.272 139.323 55.43 140.007zM88.435 16.988L88.593994 15.172001L87.092995 15.487C 85.672 15.962001 84.24999 15.540001 82.829994 14.224001C 81.881 14.382001 81.48599 14.014001 81.644 13.119001C 82.01199 12.329001 81.907 11.909001 81.328995 11.856001L81.328995 11.856001L79.038994 12.093001C 77.563995 11.883001 76.591995 11.461001 76.117 10.830002C 75.800995 10.303001 76.01199 9.645002 76.75 8.856002C 75.328 8.276002 74.446 7.646002 74.104004 6.961002C 73.76201 6.276002 73.972 5.724002 74.735 5.302002C 75.498 4.882002 76.907 4.802002 78.961 5.066002C 78.487 4.486002 78.354 3.881002 78.566 3.250002C 78.618004 2.6190019 79.986 2.9610019 82.671005 4.276002L82.671005 4.276002L84.24901 5.224002C 84.671005 4.434002 85.38101 4.198002 86.38201 4.513002C 87.59201 5.092002 88.72501 5.790002 89.77701 6.605002C 90.83101 7.421002 92.01301 8.592002 93.33101 10.119001C 94.43601 9.382002 95.226006 9.540001 95.699005 10.592001L95.699005 10.592001L95.935005 12.487001C 94.77801 11.382002 93.357 11.303001 91.671005 12.251001L91.671005 12.251001L90.56701 11.777001C 89.04101 9.935001 88.11901 8.539001 87.80201 7.5910015C 87.48701 6.3810015 87.32901 6.2760015 87.32901 7.2760015C 87.38201 8.329001 88.01301 9.672001 89.22401 11.303001C 86.909004 10.567001 85.20901 9.619001 84.131004 8.460001C 83.052 7.302001 82.22201 6.329001 81.644005 5.539001C 81.066 4.592001 80.829 4.592001 80.934006 5.539001C 81.565 6.698001 82.435005 7.777001 83.53801 8.777C 82.69701 8.408 81.906006 8.040001 81.17001 7.6710005C 79.32701 6.8820004 77.80101 6.4610004 76.59101 6.4080005C 76.01101 6.4080005 75.98501 6.5130005 76.51201 6.7230005C 78.56601 7.2500005 80.05201 7.7370005 80.97201 8.184C 81.895004 8.632 82.51301 9.039 82.82901 9.408C 81.35401 10.04 79.82701 10.329 78.24801 10.277C 77.24801 10.224 76.80201 10.251 76.906006 10.356001C 77.01101 10.461 77.327 10.567001 77.853004 10.6710005C 79.748 10.882001 81.66901 10.672001 83.617004 10.040001C 85.039 10.777 86.69701 11.487001 88.593 12.172001C 87.434006 12.435001 86.302 12.962001 85.19701 13.752001C 84.77601 14.278001 84.98601 14.304001 85.828 13.831001C 86.671005 13.199001 87.93301 12.804001 89.618004 12.646002L89.618004 12.646002L90.961006 13.198002C 90.85701 14.620002 91.198006 16.067001 91.98701 17.542002L91.98701 17.542002L91.11901 17.857002L88.435 16.988zM97.438 25.434C 94.489006 25.487 93.896 25.415 93.728004 24.962C 93.618004 24.612 93.55601 24.292 94.594 23.699L94.594 23.699L95.127 22.803C 93.414 22.02 91.833 21.09 91.75 18.962L91.75 18.962L93.172 18.409C 93.80299 17.673 93.818 17.119 93.212 16.751C 92.605995 16.382 92.276 15.407999 92.224 13.83C 92.804 12.566999 94.224 12.566999 96.49 13.83C 97.489 11.882 98.7 11.3029995 100.119995 12.093C 98.59599 12.093 97.699 12.751 97.436 14.067C 97.278 14.909 97.278 15.936001 97.436 17.147C 96.909996 16.41 96.277 15.778999 95.53999 15.251999C 94.118 14.515999 93.854996 14.593999 94.75099 15.487999C 95.64599 16.383 96.43699 17.303999 97.119995 18.251999C 95.961 19.199 94.699 19.620998 93.329994 19.515999C 92.855995 19.725998 92.935 19.857998 93.565994 19.911C 94.19699 20.069 94.935 20.015999 95.77699 19.752998C 95.67199 20.594997 95.94899 21.992998 96.31699 22.833998C 96.815994 23.552998 97.481995 24.187998 98.26399 24.764997C 97.897 24.87 97.596 25.066 97.438 25.434zM99.095 26.937C 99.042 26.305 99.595 25.95 100.753 25.871C 101.909996 25.792 102.095 25.463001 101.306 24.884C 99.779 24.357 98.517 23.462 97.516 22.199001C 96.832 21.304 96.832 20.673 97.516 20.304L97.516 20.304L98.701 19.989L99.254 19.278L98.544 16.514C 98.333 15.093 98.728 14.093 99.727 13.514C 101.148994 13.304 102.544 13.725 103.911995 14.778C 103.965 14.041 104.452995 13.818 105.37499 14.107C 106.29499 14.397 107.149994 16.357 107.938995 19.99L107.938995 19.99L109.202995 20.463C 109.62399 19.463 109.965996 18.963 110.229996 18.963C 110.65099 18.963 111.072 19.831 111.493 21.569C 112.547 22.516 113.047 24.069 112.993996 26.227001C 112.31 27.122002 111.939995 28.227001 111.89 29.544L111.89 29.544L111.256996 28.122C 110.889 26.543 110.730995 24.885 110.783 23.147999C 110.729996 22.411999 110.65099 22.411999 110.547 23.147999C 110.389 24.675 110.362 25.963999 110.467995 27.016998C 109.046 25.173998 107.519 23.516998 105.88699 22.041998C 105.57199 20.883999 105.465996 19.567997 105.57199 18.093998C 105.413994 16.830997 105.28299 16.541998 105.176994 17.224998C 105.07199 18.804998 105.12399 20.277998 105.33399 21.647C 104.12299 20.437 102.702995 18.673 101.06999 16.355999C 100.649994 15.619999 100.465996 15.461999 100.51799 15.882999C 101.51699 17.778 102.57099 19.356998 103.67499 20.620998C 104.78099 21.883999 105.67499 22.883999 106.360985 23.620998C 104.99198 23.198997 103.806984 22.922998 102.80798 22.791998C 101.805984 22.659998 100.88599 22.382998 100.04398 21.961998C 99.25398 21.803997 99.27998 21.987997 100.12099 22.513998C 100.596985 22.829998 101.55798 23.119999 103.00399 23.382998C 104.45199 23.646997 105.80699 24.093998 107.07099 24.725998C 107.75499 25.145998 108.675995 26.225998 109.83399 27.962997L109.83399 27.962997L110.78199 30.094997C 109.30699 29.305998 107.67599 28.752998 105.88599 28.436996C 104.097984 28.120996 103.04398 27.831997 102.72899 27.567997C 101.359985 26.988997 101.20199 27.041996 102.25499 27.726997C 102.56999 28.041998 103.68899 28.396997 105.60999 28.791998C 107.53199 29.186998 109.385994 29.936998 111.175995 31.041998L111.175995 31.041998L111.33299 31.514997C 110.965 31.936998 110.83399 32.516 110.937996 33.252L110.937996 33.252L111.491 34.832C 111.017 34.252 110.36 34.517002 109.517 35.622C 109.832 34.937 109.753 34.306 109.28 33.727C 108.544 32.622 106.754 31.437 103.909996 30.174002L103.909996 30.174002L103.437 31.043001C 101.121 30.305 99.674 28.937 99.095 26.937zM118.321 66.298C 117.769 65.481995 116.978 64.231995 115.953 62.546997C 114.928 60.861996 114.177 59.493996 113.702 58.441998C 113.228004 57.388996 113.149 56.309998 113.465004 55.204998C 113.78001 54.099 114.04401 53.256996 114.256004 52.677998C 114.466 52.099 114.44 51.992996 114.177 52.361996C 113.544 53.466995 113.097 54.546997 112.834 55.598995L112.834 55.598995L111.255 51.097996C 111.411995 49.308994 112.36 47.019997 114.098 44.229996C 114.624 43.281994 114.572 43.202995 113.939 43.991997C 112.361 46.096996 111.334 48.229996 110.861 50.387997L110.861 50.387997L108.414 44.939995C 108.361 43.939995 108.992004 42.043995 110.309 39.254993C 110.993 37.779995 110.835 37.832993 109.834 39.412994C 108.992 40.991993 108.388 42.465996 108.018 43.833996C 107.282 40.833996 106.572 38.279995 105.886 36.174995L105.886 36.174995L105.333 36.016994L105.649 36.885994C 106.069 39.517994 106.65 41.807995 107.386 43.755993C 106.386 42.860992 105.254 42.123993 103.991005 41.545994C 103.30501 41.177994 103.30501 41.255993 103.991005 41.782993C 105.51601 42.677994 106.676 43.572994 107.464005 44.467995C 108.09601 45.941994 108.676 47.283997 109.201004 48.494995C 108.255005 47.809994 106.649 47.021996 104.386 46.125996C 103.543 45.967995 103.543 46.072994 104.386 46.441998C 107.228004 47.6 108.991005 48.732 109.675 49.836998L109.675 49.836998L111.255005 54.022C 110.676 54.022 109.912 53.154 108.965004 51.417C 108.174 49.942 106.200005 48.521 103.04301 47.152C 102.41201 46.889 102.12101 46.337 102.17501 45.494C 102.280014 44.915 102.88501 44.678 103.99101 44.783C 103.67401 43.888 103.305016 43.178 102.88501 42.651L102.88501 42.651L102.25401 41.704002C 101.41101 39.967003 101.91001 39.099003 103.75301 39.098003C 103.069016 38.045002 102.832016 37.230003 103.043015 36.651005C 102.99001 35.651005 103.22701 34.677006 103.75301 33.729004C 104.068016 33.097004 104.307014 32.466003 104.46501 31.834003C 105.46401 32.414005 106.37201 32.9 107.19001 33.294003C 108.00401 33.690002 108.44001 34.413002 108.49201 35.465004L108.49201 35.465004L108.098015 37.913002C 108.25501 38.387 108.67602 38.228 109.360016 37.439003C 110.044014 36.492004 110.597015 35.939003 111.01801 35.781002C 111.597015 36.044003 112.15102 36.518 112.67601 37.202003C 113.20201 38.202003 113.01801 40.045002 112.12401 42.729004L112.12401 42.729004L111.255005 44.940002C 113.045006 42.571003 114.492004 41.440002 115.59701 41.545002C 115.965004 41.808002 116.08401 42.348003 115.95301 43.163002C 115.82101 43.979004 115.82101 44.834003 115.95301 45.729004C 116.08401 46.624004 115.78101 47.388004 115.04501 48.019005C 114.30901 48.651005 113.807014 49.677006 113.544014 51.098003C 115.22901 49.835003 115.91202 50.072002 115.597015 51.809002L115.597015 51.809002L114.65102 55.205C 114.38702 56.836002 114.65102 57.600002 115.44002 57.495003C 116.23002 57.390003 116.71602 57.495003 116.902016 57.81C 117.085014 58.125 117.125015 58.679 117.01901 59.469C 116.54501 60.574 116.335014 61.298 116.388016 61.640003C 116.44102 61.982002 116.584015 62.272003 116.821014 62.509003C 117.05901 62.746002 117.572014 62.693 118.362015 62.351C 119.15102 62.009003 119.54601 62.246002 119.54601 63.061C 119.54601 63.878002 119.56001 64.667 119.58601 65.431C 119.612015 66.194 119.861015 66.945 120.33701 67.681C 120.70501 68.208 121.17802 68.55 121.75701 68.707L121.75701 68.707L122.46901 67.838C 121.41501 67.891 120.92801 67.207 121.00801 65.784996C 121.085014 64.364 121.07301 63.258995 120.96801 62.468994C 120.54701 61.468994 120.12601 60.915993 119.70401 60.809994C 119.28301 60.704994 118.30901 58.072994 116.78301 52.913994L116.78301 52.913994L118.44101 52.992992C 119.65101 57.414993 120.62601 59.796993 121.36201 60.138992C 122.09801 60.48099 122.44201 60.874992 122.38901 61.32299C 122.336006 61.76999 122.46801 62.73099 122.784004 64.20499C 123.73 63.940987 124.284004 63.072987 124.442 61.598988C 124.705 60.22999 124.31 59.177986 123.256004 58.440987C 122.15201 57.808987 121.519005 57.230988 121.36101 56.702988C 121.046005 55.807987 121.38701 55.25599 122.38801 55.044987C 122.96601 54.72999 121.57101 53.46599 118.20301 51.255985C 116.46601 50.043983 115.93701 48.964985 116.62301 48.017986C 116.88601 47.544987 117.37401 47.557987 118.08401 48.057987C 118.79401 48.557987 119.255005 48.676987 119.465004 48.413986C 119.833 47.676987 119.54401 47.162987 118.59801 46.873985C 117.64901 46.583984 117.202 46.254986 117.255005 45.886986C 117.202 44.255985 117.228004 43.150986 117.33301 42.570984C 117.43801 41.990982 117.38601 41.307983 117.17601 40.517982C 116.59701 39.675983 115.49101 39.72798 113.85901 40.675983C 114.22901 39.780983 114.32001 38.911983 114.13601 38.069984C 113.95101 37.227985 113.54301 36.411983 112.91201 35.621986L112.91201 35.621986L112.12301 33.17399C 111.91101 32.33099 112.38601 31.752989 113.54301 31.436989C 113.17501 29.804989 113.17501 28.646988 113.54301 27.961988C 113.911 27.224989 114.17601 26.619987 114.33401 26.145988C 114.491005 25.671988 114.965004 25.619987 115.754005 25.987988C 116.54401 26.355988 117.80701 27.750988 119.54401 30.172987C 120.38801 29.224987 121.202 29.567987 121.993004 31.198986C 122.939 32.672985 123.30701 34.436985 123.097 36.489986C 125.044 35.436985 125.728 36.146988 125.15 38.621986C 125.993004 40.358986 126.505005 41.713985 126.689 42.68799C 126.874 43.661987 126.715004 44.56999 126.215004 45.412987C 125.716 46.253986 125.479004 46.898987 125.505005 47.34799C 125.531006 47.794987 125.716 47.781986 126.05801 47.307987C 126.40001 46.83399 127.09801 46.438988 128.151 46.122986C 128.835 47.596985 129.125 48.570984 129.019 49.043987C 129.019 49.62399 128.663 50.254986 127.953995 50.938988C 127.243 51.62399 126.83499 52.439987 126.729 53.386986C 126.729 53.860985 126.965996 54.096985 127.439995 54.096985L127.439995 54.096985L128.861 53.701984C 129.59698 53.596985 129.624 54.175983 128.93999 55.438984C 128.204 56.806984 127.66399 57.964985 127.32199 58.912983C 126.979996 59.86098 126.80799 60.62398 126.80799 61.203983C 126.75499 62.413982 126.54499 63.124985 126.176994 63.335983C 126.282 61.808983 126.241 60.216984 126.05799 58.558983C 125.87299 56.899982 125.54399 55.045982 125.07099 52.99198C 125.49199 52.62398 126.07199 51.386982 126.80799 49.280983C 127.17599 48.22898 127.09799 48.096985 126.57199 48.885983C 125.99299 50.465984 125.412994 51.438984 124.83499 51.806984C 124.25699 49.859985 123.62299 47.490982 122.93899 44.700985C 123.72799 43.384987 124.22899 41.726986 124.43999 39.725986C 124.49299 38.040985 124.386986 37.90999 124.124985 39.330986C 123.80798 41.331985 123.22898 42.883987 122.387985 43.989986C 121.70199 41.779987 120.96599 39.699986 120.17699 37.751987C 120.43999 36.646988 120.54498 35.356987 120.49199 33.882988C 120.43899 32.40999 120.30799 32.356987 120.09699 33.724987C 120.09699 34.829987 119.96399 35.77799 119.70099 36.567986L119.70099 36.567986L117.96499 32.145985L116.859985 29.619984C 116.49199 28.777985 116.359985 28.777985 116.46499 29.619984L116.46499 29.619984L117.48999 32.93598C 116.70099 32.04098 115.96299 31.383982 115.27899 30.961983C 114.59499 30.541983 114.46399 30.566982 114.883995 31.040983C 116.04299 32.040985 117.04199 33.119984 117.883995 34.277985C 118.56999 35.962986 119.253 37.699986 119.938995 39.489983C 117.937 37.80498 116.543 36.857983 115.752 36.647984C 114.753 36.278984 114.753 36.463985 115.752 37.19998C 117.173996 38.094982 118.858 39.67498 120.806 41.93798C 121.438 43.77998 122.042 45.56998 122.622 47.30798C 121.621 46.727978 120.411 45.57098 118.989 43.83298C 118.358 43.20198 118.332 43.30698 118.910995 44.14798C 120.06899 45.88498 121.410995 47.41198 122.937 48.72798L122.937 48.72798L124.12299 53.543983C 122.910995 52.333984 121.33199 51.095985 119.383995 49.832985C 118.54299 49.306984 118.49 49.411983 119.227 50.147984C 120.911995 51.358982 122.674995 53.148983 124.518 55.517982C 125.043 56.99298 125.281 59.702984 125.228 63.65098C 125.174995 64.650986 124.438995 65.387985 123.017 65.860985L123.017 65.860985L122.701996 69.651985L120.728 69.73099C 119.677 68.259 118.873 67.114 118.321 66.298zM120.896 70.001C 121.211006 69.895996 121.921005 69.983 122.605 69.983C 121.869 73.983 121.019005 78.366005 120.33501 81.102005L120.33501 81.102005L119.229004 80.47101C 120.178 76.681 120.687 72.423 120.896 70.001zM106.872 92.512C 106.582 92.277 105.700005 91.551 104.228004 90.341C 102.911 89.185005 102.490005 88.133 102.963005 87.18301C 102.59501 86.70901 102.26601 86.156006 101.976006 85.52401C 101.687004 84.89301 101.75201 84.27601 102.174 83.67001C 102.595 83.06401 103.568 83.34101 105.095 84.501015C 105.358 83.60401 105.358 82.76202 105.095 81.973015C 104.832 81.18401 104.517 80.39601 104.149 79.60301C 103.463005 78.34101 102.806 77.26101 102.174 76.36701C 101.594 75.15701 101.462006 74.472015 101.778 74.31401C 102.093 74.15601 102.594 74.36701 103.278 74.946014C 104.594 73.52502 105.463 73.11701 105.883 73.722015C 106.305 74.32702 106.648 75.34102 106.91 76.76202C 107.173004 78.18401 107.199005 79.65701 106.989006 81.18501L106.989006 81.18501L106.674 81.501015L106.989006 81.81602C 107.093 82.13102 106.963005 83.31602 106.59401 85.36802C 106.59401 85.78902 106.725006 86.21302 106.989006 86.63402C 106.884 85.999016 106.857 85.52602 106.91 85.210014C 106.963005 84.947014 107.135 84.33002 107.424 83.35602C 107.713005 82.38202 107.857 81.83102 107.857 81.69802C 107.857 81.56802 107.874 81.47302 107.453 81.42102C 107.926 81.26302 108.003006 81.03902 108.135 80.75102C 108.267006 80.46002 108.292 80.17302 108.214005 79.88202C 108.135 79.59402 108.082 78.763016 108.05601 77.39602C 108.03001 76.027016 107.89901 74.98702 107.66101 74.27602C 107.42501 73.56602 107.27901 73.013016 107.22601 72.61802C 107.17301 72.22302 106.85802 72.00002 106.280014 71.94702C 105.69901 71.89502 104.88401 72.47402 103.83102 73.68402C 104.306015 71.42102 104.792015 69.90702 105.293015 69.14402C 105.793015 68.38002 106.306015 68.15702 106.832016 68.47302C 107.35802 68.788025 107.70001 69.13102 107.85702 69.49902C 108.015015 69.86702 108.25302 69.801025 108.569016 69.302025C 108.88402 68.802025 109.14702 68.63103 109.35802 68.788025C 109.568016 68.94702 109.793015 69.262024 110.030014 69.73502C 110.266014 70.21002 110.43801 70.70902 110.544014 71.23602C 110.64801 71.762024 110.74001 72.72202 110.818016 74.11803C 110.89702 75.51302 110.72701 76.44703 110.306015 76.92103C 109.88302 77.39603 109.67301 77.97503 109.67301 78.65803C 109.778015 81.39603 109.988014 82.75003 110.306015 82.72503C 110.62102 82.69703 111.002014 82.48603 111.45101 82.093025C 111.89801 81.69702 112.293015 81.553024 112.63501 81.65803C 112.977005 81.76303 113.17501 82.52803 113.22801 83.94803C 113.28101 85.36803 113.41201 85.51503 113.62301 84.383026C 113.83301 83.25002 114.22901 82.68603 114.80801 82.68603C 115.38701 82.68603 115.493004 84.21103 115.12301 87.26503C 113.07001 89.10603 111.59701 90.63403 110.70201 91.84403C 110.38701 90.53003 110.37301 89.60803 110.66201 89.08103C 110.95101 88.55403 111.21401 87.96303 111.45201 87.30403C 111.68901 86.645035 111.88601 86.05203 112.04501 85.52603C 112.46601 84.26403 112.38702 84.159035 111.807014 85.21103C 111.49201 85.842026 111.21401 86.397026 110.98001 86.869026C 110.74201 87.343025 110.46601 87.816025 110.15101 88.29303C 110.04401 87.44803 109.70201 85.94703 109.12401 83.79103C 108.65001 82.31803 108.519005 82.34303 108.72901 83.868034C 109.14901 86.34403 109.43901 88.73804 109.59601 91.05604C 108.70201 90.11004 107.79401 89.29204 106.87201 88.60904C 105.95101 87.921036 105.14801 87.18604 104.46501 86.39704C 103.88501 86.029045 103.779015 86.08204 104.15001 86.55404C 104.781006 87.39604 105.71501 88.38404 106.95101 89.51704C 108.18901 90.646034 108.93901 91.39703 109.20201 91.76504C 109.46601 92.13604 109.62301 92.452034 109.67601 92.715034C 109.20201 93.34603 108.65101 94.005035 108.01801 94.68903C 107.65002 94.478035 107.43901 94.12103 107.38702 93.62303C 107.333 93.118 107.161 92.75 106.872 92.512zM78.566 121.371C 79.197 120.635 80.012 119.979004 81.013 119.397C 85.487 117.188 88.461 115.898 89.934 115.53001C 90.198 115.425 90.436 115.50201 90.645996 115.76401L90.645996 115.76401L91.27699 116.55701L90.409996 117.10701C 89.882996 117.52801 89.224 117.71401 88.434 117.66201C 87.749 117.60901 86.83 117.83401 85.671 118.33101C 84.514 118.83301 83.88 119.53001 83.774994 120.42501C 83.563995 121.05601 83.274994 121.45201 82.907 121.61001C 81.749 122.24201 80.696 122.796005 79.748 123.269005L79.748 123.269005L77.301 123.11101L78.566 121.371zM85.277 124L84.882 124L84.871 123.813C 84.598 123.921005 84.315 123.949005 84.012 124.066L84.012 124.066L81.408005 123.704L84.171005 122.342L84.872 123.654C 84.998 123.601 85.114 123.548996 85.233 123.5L85.233 123.5L84.882 122.163C 84.618004 121.269005 84.935005 120.441 85.828 119.912C 86.671005 119.28 87.592 118.961006 88.593 119.066C 89.014 119.118004 89.04 119.819 88.672005 121.295C 88.40501 121.916 87.25201 122.818 85.233 123.662994L85.233 123.662994L85.277 124zM73.748 134.166L73.353004 132.899L71.22201 135.586L69.48401 136.69C 68.69501 137.37401 67.879005 137.636 67.03701 137.478L67.03701 137.478L64.27301 136.13899L65.69401 135.42699L66.088005 135.74199C 65.825005 136.53099 66.14101 136.426 67.037 135.42699L67.037 135.42699L69.484 133.05699C 69.642 131.637 69.3 129.80699 68.458 127.56999C 67.616 125.33299 66.984 123.926994 66.563 123.34499C 66.458 122.870995 65.247 122.76599 62.930004 123.02899C 64.299 122.34499 65.90501 122.29299 67.747 122.871994L67.747 122.871994L69.642 123.660995L70.673 123.22299L70.52599 123.08199L68.772995 122.24099L69.72099 122.32099L70.52599 123.08199L70.74899 123.187L70.673996 123.222L71.223 123.741C 73.907 126.63699 75.419 128.611 75.763 129.663C 76.105 130.71599 76.144 131.743 75.88 132.74199C 74.881 134.061 74.169 134.533 73.748 134.166zM92.621 145.532L93.488 145.694L93.173 146.087L91.119995 146.718C 90.22399 147.507 89.172 148.036 87.961 148.299L87.961 148.299L86.619995 148.06099L86.30299 147.11499C 86.619995 146.64099 87.02699 146.29799 87.52799 146.088C 88.02799 145.877 88.673996 145.69499 89.46299 145.533L89.46299 145.533L91.35799 145.852L92.621 145.532zM89.698 145.097C 88.276 145.097 87.382996 146 87.013 146L87.013 146L85.908 146C 84.381 144 83.172 143.543 82.277 142.649L82.277 142.649L78.566 139.511C 79.25 139.144 80.723 139.382 82.987 140.014L82.987 140.014L89.698 145.097zM100.99 128.598C 102.516 128.72801 103.673996 128.664 104.465 128.40201C 105.884995 127.823006 108.807 125.66401 113.229 121.92601C 117.493 118.71401 121.098 116.47701 124.047 115.21501C 124.94199 114.68901 124.981995 114.307014 124.163994 114.06901C 123.34999 113.83401 122.12499 113.71501 120.493 113.71501C 119.965996 114.13601 120.018 114.48001 120.65099 114.74201C 121.38699 114.68901 121.912994 114.74201 122.229996 114.89901C 118.702995 116.74001 115.754 118.58501 113.385994 120.42501C 113.59599 119.21501 113.77999 117.13601 113.937996 114.18801C 113.884995 113.24101 113.57 112.39901 112.992 111.66001C 112.624 111.13401 113.074 110.66101 114.44299 110.24001L114.44299 110.24001L115.49999 109.92501L115.49999 111.66001L114.048996 111.26701L114.231995 112.056015C 114.547 112.63402 115.13799 113.03101 115.981995 113.24101L115.981995 113.24101L120.24899 113.47601L122.147995 113.39901C 124.35899 113.45201 125.440994 113.99101 125.38799 115.01801C 125.33599 116.042015 125.411995 117.00301 125.62299 117.90102C 125.992 120.16302 126.88899 122.322014 128.31099 124.374016C 127.99599 125.320015 127.31099 126.429016 126.25899 127.69002L126.25899 127.69002L122.150986 130.37602C 118.625984 132.90002 113.833984 136.19302 107.77998 140.24602C 103.46498 140.35101 98.27998 140.00801 92.22498 139.21902C 87.85598 138.64102 82.82999 137.53603 77.14498 135.90303L77.14498 135.90303L75.87998 135.58803L76.43298 135.03304C 77.32899 133.87703 77.81599 133.10103 77.89498 132.70503C 77.97398 132.30904 77.82298 131.41504 77.47898 130.01903C 77.13698 128.62303 76.499985 126.97903 74.499985 125.08503L74.499985 125.08503L74.499985 124.61203L75.70299 124.45403C 78.96799 124.66503 81.88599 125.08503 84.43699 125.71703C 86.98999 126.34803 90.03399 126.92603 93.56099 127.452034C 96.983 128.086 99.463 128.465 100.99 128.598zM95.068 126.504C 93.699 126.294 91.488 125.901 88.434 125.319L88.434 125.319L91.199 124.373C 92.673 124.688 93.514 124.373 93.724 123.426C 93.936 124.53 94.385 125.558 95.068 126.504zM111.57 103.213C 110.518 104.368996 110.173996 105.578995 110.545 106.845C 109.07 107.634 107.649 108.791 106.281 110.32C 104.911995 111.845 103.872 113.135 103.159996 114.188C 102.45 115.240005 101.7 115.871 100.910995 116.08401C 100.01499 116.505005 98.99 116.29401 97.83099 115.449005L97.83099 115.449005L97.51599 117.424L92.22499 120.663L89.61999 121.767C 89.830986 121.241 89.96199 120.347 90.014984 119.081L90.014984 119.081L90.96298 118.292C 94.595985 116.398 96.70098 114.659 97.278984 113.082C 98.014984 111.764 98.805984 110.673004 99.64799 109.804C 100.49099 108.934 101.095985 107.868004 101.46299 106.606L101.46299 106.606L101.54199 104.712006L101.30599 102.73801C 102.147995 103.684006 102.910995 103.895004 103.59499 103.369C 104.701 101.314 105.884995 99.407005 107.148994 97.643005C 108.413994 95.879005 109.754 94.23501 111.175995 92.71001C 112.59799 91.18101 113.80699 89.89101 114.808 88.839005L114.808 88.839005L114.729996 90.813C 111.571 94.709 109.59599 97.367004 108.807 98.79C 106.123 102.844 104.307 106.056 103.359 108.422C 102.781 109.736 101.937004 110.792 100.833 111.58099C 99.99 112.00199 99.358 112.45 98.938 112.923996C 98.57001 113.607994 98.78001 113.78999 99.569 113.475C 100.094 112.949 100.675 112.556 101.306 112.293C 102.465 111.711 104.938 108.976 108.729 104.081L108.729 104.081L108.649994 101.314L109.51799 99.814C 109.46499 101.342 109.59599 102.184006 109.91299 102.341C 110.22799 102.499 110.66299 102.065 111.21699 101.037C 111.76899 100.013 113.123985 97.183 115.28199 92.552C 114.80799 93.972 114.78199 95.209 115.20299 96.262C 113.93899 97.156 113.597984 98.685 114.177986 100.841L114.177986 100.841L111.57 103.213zM129.298 85.682C 129.113 87 128.679 88.132996 127.995 89.079C 125.835 91.551 124.941 93.027 125.30801 93.5C 125.88701 94.5 125.782005 95.632 124.993004 96.895C 123.83501 98.319 122.309006 99.895996 120.414 101.631C 120.94 102.687 120.546005 103.58099 119.229004 104.31799C 117.702 105.159 116.017006 105.895 114.176 106.52999C 117.597 103.94999 119.702 101.18599 120.492004 98.23799C 121.596 97.23899 122.57101 96.579994 123.413 96.26399C 124.151 95.78999 124.282005 95.579994 123.809006 95.63199C 122.86001 95.999985 121.85901 96.57899 120.80701 97.36799C 121.80701 95.36899 122.518005 93.20899 122.93901 90.89499C 124.99201 88.89299 126.28301 87.31499 126.808014 86.15499C 127.544014 85.050995 127.571014 84.814995 126.88702 85.44599C 126.098015 86.760994 124.88702 88.15699 123.25401 89.62999C 123.99201 87.36799 124.65002 84.83999 125.22901 82.04899C 125.49201 80.41899 125.41301 80.12799 124.99201 81.18299L124.99201 81.18299L124.20401 83.94699C 123.83401 82.842995 123.41301 81.996994 122.93901 81.41899L122.93901 81.41899L123.96601 84.73499C 123.75401 86.049995 123.25401 87.91899 122.46601 90.340996C 121.72801 88.237 120.75401 86.340996 119.543015 84.658C 118.43902 83.286995 118.25401 83.26199 118.99001 84.576996C 120.20201 86.315994 121.20101 88.604996 121.99201 91.44499C 121.35901 93.97299 120.62301 96.076996 119.78101 97.76299C 119.14801 96.81699 118.49101 96.15799 117.805016 95.788994C 117.279015 95.52599 117.279015 95.68399 117.805016 96.26299C 118.49101 96.94699 119.042015 97.62999 119.46301 98.31799C 118.832016 99.841995 118.00301 101.18499 116.97801 102.341995C 115.95101 103.49899 114.93701 104.474 113.93601 105.26299C 115.20001 103.31699 115.62101 101.15799 115.20001 98.78999C 115.20001 98.368996 115.530014 98.02599 116.18701 97.76299C 116.84401 97.49999 117.069016 97.20899 116.85901 96.89399C 116.28001 95.73699 115.989006 94.81499 115.99101 94.13099C 116.41201 93.91999 117.043015 93.91999 117.88501 94.13099C 118.57101 93.65699 118.50401 92.984985 117.68901 92.11799C 116.87201 91.247986 116.36001 89.99699 116.14901 88.36599C 116.14901 87.41999 116.78101 87.07599 118.04501 87.33899C 118.624016 87.28599 118.67601 86.60299 118.20301 85.28799L118.20301 85.28799L116.86001 83.471985C 115.91101 81.36498 116.30701 80.60399 118.045006 81.181984L118.045006 81.181984L120.09801 82.444984C 121.466 82.969986 122.12401 82.04898 122.073006 79.681984C 122.073006 79.15598 122.479004 79.03598 123.297005 79.32398C 124.11101 79.61498 124.86201 78.998985 125.546005 77.469986C 126.232 76.733986 126.757 77.416985 127.12501 79.52499C 126.96801 82.31599 127.65101 83.63099 129.17801 83.472984C 129.441 83.631 129.481 84.367 129.298 85.682zM131.666 78.89C 131.745 79.416 131.626 79.851 131.311 80.195C 130.99501 80.534996 130.39 80.837 129.49501 81.099L129.49501 81.099L128.62701 79.514C 128.68001 78.252 128.25902 77.032 127.363014 75.873C 127.73101 75.557 128.31102 75.223 129.10002 74.908005C 129.67802 74.643005 129.57303 74.93301 128.78502 75.038C 127.942 75.196 127.283 76 126.81 76L126.81 76L126.653 76C 127.126 74 127.89 72.38 128.942 70.854004C 129.20601 70.16801 129.047 70.067 128.469 70.804C 127.57299 72.067 126.783 73.309 126.09999 74.73C 125.78299 74.414 125.54599 73.784004 125.38799 72.942C 125.17799 71.942 125.02 71.889 124.91499 72.837C 125.07199 74.048 125.30899 74.904 125.62499 75.43C 124.467995 77.22 123.54599 77.925 122.86099 77.556C 123.28199 75.03 123.83499 72.368 124.51999 69.576996C 125.72899 68.367 126.78299 67.96999 127.67699 68.391C 128.941 67.391 130.02098 67.205 130.915 67.837C 131.388 68.627 131.599 69.402 131.54599 70.166C 131.493 70.929 131.23099 71.784 130.75699 72.731C 131.75598 72.731 132.28398 73.12701 132.33699 73.916C 131.91399 75.706 131.07199 76.995 129.80899 77.784C 130.968 77.998 131.587 78.364 131.666 78.89z" stroke="none" fill="#FFFFFF" fill-rule="nonzero" />
	<g transform="matrix(1 0 0 1 0 0)">
	</g>
    <path transform="matrix(1 0 0 1 0 0)"  d="M21.091 129.312C 21.1 129.495 21.282999 129.484 21.473999 129.649C 22.209 130.143 22.919998 129.929 23.415998 129.011C 24.083998 128.088 23.859999 127.380005 23.123999 126.893005C 22.741 126.549 22.741 126.549 22.411 127.107L22.411 127.107L21.091 129.312zM10.669 122.336C 11.613 123.005 12.17 123.506996 13.1779995 122.201996C 13.676999 121.465996 13.629 120.578995 13.073999 120.245995C 12.888999 120.08499 12.523 119.923 12.523 119.923C 12.337 119.931 12.347 120.112 12.169 120.12299L12.169 120.12299L10.669 122.336zM25.646 129.702C 25.785 128.97899 25.928 128.439 25.376 127.934L25.376 127.934L25.543 127.742C 25.9 127.907 26.293 128.243 26.653 128.401C 27.027 128.558 27.397 128.895 27.945 129.039L27.945 129.039L27.772 129.222C 27.594 129.057 27.046 128.913 26.882 129.271C 26.719 129.647 26.279 131.44499 26.116 131.996L26.116 131.996L25.574 135.054L27.810999 133.16C 28.144 132.785 29.509998 131.453 29.668999 131.095C 30.001999 130.537 29.630999 130.384 29.443998 130.20801L29.443998 130.20801L29.425 129.86C 29.8 130.19 30.161 130.355 30.355999 130.52C 30.728998 130.681 31.087 130.838 31.280998 131.01001L31.280998 131.01001L31.289999 131.17801C 30.547998 130.69101 29.876 131.61601 29.185999 132.18501L29.185999 132.18501L24.743 136.35402L24.378 136.18602L25.646 129.702zM19.916 130.8C 19.759 131.168 19.268 131.914 19.287 132.26201C 19.127 132.63 19.481 132.79501 19.864 133.13101L19.864 133.13101L19.695 133.31001C 19.324999 132.98102 18.948 132.82301 18.389 132.47902C 18.023 132.32903 17.65 132.00002 17.283 131.84102L17.283 131.84102L17.263 131.47702C 17.631 131.64502 18.004 131.98203 18.173 131.61401C 18.514 131.41002 19.023 130.67702 19.183 130.30501L19.183 130.30501L20.825 127.546005C 20.979 127.18101 21.485 126.448006 21.651001 126.24801C 21.802 125.712006 21.437 125.55101 21.068 125.393005L21.068 125.393005L21.240002 125.204C 21.614002 125.541 22.162003 125.692 22.542002 126.025C 22.906002 126.182 23.285002 126.522 23.652002 126.684C 24.568003 127.164 25.345003 128.188 24.511002 129.489C 23.690002 130.958 22.238 130.675 21.312002 130.018C 21.130003 130.029 20.757002 129.68901 20.757002 129.68901L20.757002 129.68901L19.916 130.8zM15.944 124.464C 16.101 124.096 16.6 123.353 16.768 123.166C 16.918999 122.627 16.552 122.465004 16.185 122.308L16.185 122.308L16.532999 122.097L20.435 124.576004L19.431 126.052L19.246 125.888C 19.909 124.79 19.521 124.45 18.6 123.784L18.6 123.784L18.038 123.458C 17.86 123.287 17.86 123.287 17.519001 123.662L17.519001 123.662L16.029001 126.060005C 17.145 126.898 17.661001 126.336006 18.161001 125.76501L18.161001 125.76501L18.341002 125.754005C 18.022001 126.31801 17.680002 126.691 17.510002 127.05501C 17.184002 127.61001 17.023003 127.963005 16.686003 128.34601L16.686003 128.34601L16.497004 128.17001C 17.156004 127.072014 16.780003 126.736015 15.860003 126.24501L15.860003 126.24501L14.866003 127.90701C 14.703003 128.264 14.368003 128.64601 14.387003 128.99402C 14.416003 129.53401 14.790003 129.88503 15.162003 130.02802C 16.088003 130.51901 16.630003 130.66301 17.474003 129.74402L17.474003 129.74402L17.654003 129.73302L16.669003 131.37502L12.2090025 128.39702L12.369002 128.21101C 12.569002 128.376 12.927002 128.544 13.279002 128.34102C 13.442002 128.15202 13.946002 127.41102 14.286002 127.04702L14.286002 127.04702L15.944 124.464zM11.632 126.922C 11.66 127.458 11.67 127.633995 12.049 127.977L12.049 127.977L11.887 128.166C 11.689 127.998 11.501 127.83 11.318 127.651C 11.124 127.486 10.763 127.506004 10.576 127.342L10.576 127.342L10.706 126.434006L10.734 123.58301C 10.706 123.05001 10.706 123.05001 10.329 122.71001L10.329 122.71001L9.496 123.828C 9.329 124.196 8.837 124.929 8.677 125.29401C 8.696 125.65101 8.884 125.81901 9.251 125.98201L9.251 125.98201L9.082001 126.16801C 8.714001 126.01001 8.338 125.674 7.9780006 125.505005C 7.5920005 125.17901 7.2150006 124.836006 6.6760006 124.69501L6.6760006 124.69501L6.8360004 124.506004C 7.2070003 124.66701 7.3940005 124.828 7.7390003 124.636C 8.091001 124.44 8.593 123.697 8.752001 123.342L8.752001 123.342L10.574001 120.562004C 10.746001 120.369 11.245001 119.632 11.414001 119.272C 11.567001 118.907005 11.197001 118.742004 11.009002 118.578L11.009002 118.578L10.991002 118.22C 11.549002 118.55 11.925002 118.887 12.4850025 119.213C 12.851003 119.367 13.225002 119.71 13.417003 119.875C 14.349003 120.541 15.109003 121.39 14.279003 122.68C 13.442003 123.802 12.546003 123.852 11.632003 123.354004L11.632003 123.354004L11.632 126.922zM62.919 129.288L61.442997 126.52899L60.986996 129.50899L62.919 129.288zM40.027 134.495C 40.205 134.83899 40.219 135.368 40.404 135.71199C 40.595 136.05598 40.941998 136.049 41.288 136.038C 41.989 135.838 42.32 135.137 42.121 134.267C 42.101997 133.569 41.736 133.222 41.377 132.892C 40.855 132.73799 40.511997 132.913 40.154 132.923L40.154 132.923L39.809998 132.934L40.027 134.495zM39.797 132.416L39.972 132.412C 40.311 132.213 40.658 132.202 40.835 132.026C 41.172 131.669 41.159 131.15 41.146 130.63C 40.947 129.765 40.585 129.42801 39.894 129.448C 39.723 129.624 39.36 129.631 39.36 129.631C 39.36 129.631 39.37 129.97499 39.374 130.153L39.374 130.153L39.797 132.416zM34.291 135.347C 34.3 135.691 34.497 136.389 34.672 136.74C 34.866 137.07701 35.213 137.06601 35.559002 136.884C 36.431004 136.86 36.766003 136.158 36.563004 135.113C 36.370003 134.59401 36.178005 134.07501 35.650005 133.91C 35.299004 133.753 34.777004 133.766 34.253006 133.949L34.253006 133.949L34.071007 133.95201L34.291 135.347zM33.89 133.43L34.236 133.258C 34.58 133.247 34.927002 133.23999 35.102 132.89C 35.444 132.532 35.434002 132.171 35.420002 131.659C 35.222 130.786 34.848003 130.278 33.980003 130.471C 33.980003 130.471 33.633003 130.482 33.456005 130.66399L33.456005 130.66399L33.465004 131.01099L33.89 133.43zM60.666 130.351C 60.68 130.873 60.355 131.75299 60.537 132.094C 60.551 132.623 61.074997 132.43 61.431 132.42L61.431 132.42L61.44 132.774C 61.085 132.785 60.73 132.795 60.383 132.802C 60.034 132.985 59.693 132.994 59.34 133.002L59.34 133.002L59.336 132.83C 59.854 132.643 60.021 132.45801 60.188 131.925C 60.336998 131.052 60.319 130.358 60.472 129.643L60.472 129.643L61.232 124.927L61.579998 124.92L64.353 130.25299C 64.534996 130.59299 64.897995 131.11499 65.086 131.452C 65.269 131.623 65.616 131.61299 65.963 131.605L65.963 131.605L65.973 131.94899C 65.625 131.95999 65.1 131.97398 64.754 132.15999C 64.229 132.174 63.711 132.359 63.359997 132.36699L63.359997 132.36699L63.355995 132.19798C 63.519997 132.01198 64.048996 132.00198 63.852997 131.48299C 63.848995 131.31099 63.673996 130.96399 63.669 130.79298L63.669 130.79298L62.926 129.57898L60.656 130L60.666 130.351zM57.401 125.895L57.579002 125.891L57.999 128.149L57.814 128.153C 57.427 126.94 56.529 126.098 55.486 126.295C 53.733 126.516 53.616 128.606 53.835 130.345C 54.240997 132.08 54.981 133.806 56.729 133.585C 57.949 133.20601 58.275 132.154 58.238 130.759L58.238 130.759L58.407997 130.576L58.827995 133.181L58.462994 132.668C 57.952995 133.38 57.25799 133.569 56.557995 133.763C 54.642994 134.169 53.023994 132.816 52.612995 130.562C 52.374996 128.29599 53.381996 126.347 55.293995 126.129C 56.176994 125.93 56.707996 126.090996 57.413994 126.417L57.413994 126.417L57.401 125.895zM50.233 129.222C 50.223003 128.868 50.036003 128.181 50.027 127.833C 49.66 127.493004 49.317 127.504 49.135002 127.507L49.135002 127.507L48.955 127.346C 49.476 127.15 50.008003 127.136 50.361 127.125C 50.88 127.114 51.402 126.922 51.754 126.911L51.754 126.911L51.759003 127.090004C 51.584003 127.094 51.233 127.283005 51.070004 127.623C 51.08 127.987 51.098003 128.671 51.278004 129.021L51.278004 129.021L51.723003 132.328C 51.732002 132.672 51.930004 133.53801 52.100002 133.70601C 52.291004 134.05 52.649002 134.039 52.991 134.02802L52.991 134.02802L53.001 134.38602C 52.482998 134.40002 52.119 134.40701 51.600998 134.42102C 51.253998 134.60002 50.732 134.61302 50.206997 134.62701L50.206997 134.62701L50.202995 134.45901C 50.556995 134.44801 50.899994 134.44101 50.885994 133.91202C 51.052994 133.56102 50.857994 132.87102 50.849995 132.52702L50.849995 132.52702L50.233 129.222zM44.135 130.386C 44.125 130.035 43.924 129.173 43.913998 128.819C 43.726997 128.479 43.213997 128.49 43.033997 128.669L43.033997 128.669L42.845997 128.32501C 43.371998 128.311 43.900997 128.30101 44.249996 128.12201C 44.772995 128.10701 45.307995 128.09401 45.648994 127.90401L45.648994 127.90401L45.824993 128.248C 45.476994 128.259 45.130993 128.266 44.963993 128.616C 44.972992 128.963 45.171993 129.826 45.18199 130.186L45.18199 130.186L45.616993 133.48201C 45.835995 134.878 46.191994 135.214 47.416992 135.007C 47.75999 134.824 48.29499 134.811 48.628994 134.446C 48.976994 134.092 48.962994 133.573 48.948994 133.044L48.948994 133.044L49.293995 132.85701L49.515995 134.951C 49.349995 134.95401 49.165997 134.961 49.000996 134.96501C 47.420994 135.18301 45.672997 135.57101 44.100994 135.792L44.100994 135.792L44.095993 135.613C 44.44599 135.438 44.793995 135.427 44.783993 135.07701C 44.949993 134.72601 44.75099 133.85301 44.741993 133.503L44.741993 133.503L44.135 130.386zM38.537 131.396C 38.527 131.04199 38.331997 130.183 38.145 130.00699C 37.961002 129.67099 37.614002 129.68098 37.257 129.689L37.257 129.689L37.253 129.51999C 37.78 129.32799 38.127 129.31699 38.663 129.303C 39 129.295 39.345997 129.11 39.707996 129.099C 40.751995 128.88899 41.981995 129.039 42.194996 130.43199C 42.403996 131.47299 41.704994 132.006 41.015995 132.385C 41.544994 132.37 42.070995 132.357 42.436996 132.69699C 42.961998 133.027 43.331997 133.53899 43.520996 134.051C 43.543995 134.928 43.205997 135.457 42.866997 135.819C 42.351997 136.358 41.650997 136.376 41.122997 136.39C 40.955997 136.572 40.427 136.586 40.082996 136.597C 39.545 136.61101 39.025997 136.793 38.511997 136.979L38.511997 136.979L38.503 136.639C 38.675 136.632 39.194 136.61801 39.179996 136.095C 39.170998 135.748 38.979996 135.047 38.971996 134.706L38.971996 134.706L38.537 131.396zM32.629 132.416C 32.619003 132.076 32.421 131.203 32.412003 130.862C 32.231003 130.519 31.874002 130.526 31.532003 130.716L31.532003 130.716L31.523003 130.365C 31.870003 130.354 32.398003 130.34001 32.741 130.15001C 33.276 130.136 33.623 130.12901 33.966 129.951C 34.834 129.755 36.246998 129.891 36.467 131.45201C 36.669 132.50002 36.152 133.029 35.467 133.38701C 35.995 133.373 36.517 133.36002 36.869 133.53801C 37.41 133.86401 37.772 134.38301 37.79 135.07701C 37.979 135.77802 37.656002 136.30501 37.135002 136.84102C 36.793003 137.19801 36.101 137.38802 35.573 137.40202C 35.037003 137.41702 34.690002 137.42603 34.351 137.61302C 33.640003 137.63103 33.302002 137.82303 32.597 137.84102L32.597 137.84102L32.592 137.65901C 32.936 137.47202 33.293 137.462 33.461 137.11101C 33.452 136.77101 33.252 135.90201 33.241997 135.554L33.241997 135.554L32.629 132.416zM92.053 133.338L91.522 130.134L90.100006 132.988L92.053 133.338zM103.954 132.546C 103.954 132.195 103.777 131.308 103.777 131.12201C 103.607 130.58601 103.241 130.77101 102.892 130.77101L102.892 130.77101L102.892 130.40701C 103.241 130.40701 103.777 130.40701 104.306 130.40701C 104.657 130.40701 105.194 130.23102 105.728 130.23102L105.728 130.23102L105.728 130.58502C 105.377 130.58502 105.006996 130.58502 104.842995 130.94902C 104.842995 131.30602 104.842995 132.19402 104.842995 132.54501L104.842995 132.54501L105.19399 135.75702C 105.19399 136.11401 105.19399 136.99702 105.37799 137.35902C 105.55499 137.71303 105.90899 137.71303 106.25599 137.71303L106.25599 137.71303L106.25599 137.88803C 105.72899 137.88803 105.37799 137.88803 104.84399 137.88803C 104.306984 138.06403 103.95399 138.06403 103.42399 138.06403L103.42399 138.06403L103.42399 137.88803C 103.60799 137.88803 104.138985 137.88803 104.138985 137.35902C 104.306984 136.99803 104.138985 136.29002 104.138985 135.93202L104.138985 135.93202L103.954 132.546zM96.978 131.865C 96.978 131.50401 97.166 130.617 97.166 130.266C 96.978 129.90901 96.629 129.722 96.276 129.722L96.276 129.722L96.459 129.558C 96.807 129.558 97.339 129.722 97.695 129.722C 98.229 129.909 98.76 129.909 99.289 129.909L99.289 129.909L99.118004 130.26599C 98.941 130.26599 98.401 130.09099 98.229004 130.441C 98.052 130.793 98.052 131.68999 97.868004 132.03699L97.868004 132.03699L97.339005 135.43399C 97.16601 136.851 97.339005 137.208 98.401 137.39099C 98.941 137.39099 99.465004 137.566 99.816 137.39099C 100.54 137.03 100.54 136.66798 100.709 135.95999L100.709 135.95999L101.068 135.95999L100.54 138.099C 100.54 137.923 100.178 137.923 100.178 137.923C 98.402 137.56601 96.807 137.391 95.044 137.029L95.044 137.029L95.044 136.85C 95.388 136.85 95.742 136.85 96.1 136.496C 96.1 136.324 96.277 135.434 96.459 135.072L96.459 135.072L96.978 131.865zM89.568 133.699C 89.391 134.05301 89.039 134.94 88.863 135.302C 88.863 135.827 89.391 135.827 89.568 136.014L89.568 136.014L89.568 136.18901C 89.211 136.18901 88.863 136.014 88.511 136.014C 88.148 136.014 87.793 135.82701 87.447 135.82701L87.447 135.82701L87.617 135.66301C 88.147995 135.66301 88.31799 135.47601 88.686 134.94C 89.038994 134.228 89.391 133.52 89.75 132.804L89.75 132.804L91.875 128.533L92.226 128.70201L93.287994 134.764C 93.476 135.11801 93.476 135.826 93.646996 136.188C 93.81899 136.556 93.99899 136.556 94.349 136.724L94.349 136.724L94.349 136.90399C 93.998 136.90399 93.476 136.724 92.936 136.724C 92.576 136.556 92.050995 136.556 91.52 136.556L91.52 136.556L91.697 136.188C 91.875 136.188 92.402 136.371 92.402 136.013C 92.402 135.662 92.402 135.301 92.402 134.94L92.402 134.94L92.225 133.699L89.749 133.33801L89.568 133.699zM88.885 130.053L88.702 129.881C 88.885 128.808 88.527 128.443 87.643005 128.265C 87.11201 128.265 86.57001 128.097 86.57001 128.444L86.57001 128.444L85.69201 133.963C 85.69201 134.86 85.69201 135.036 86.57001 135.398L86.57001 135.398L86.57001 135.56999C 86.047005 135.56999 85.51101 135.398 84.98701 135.219C 84.44701 135.219 83.91601 135.219 83.38401 135.036L83.38401 135.036L83.38401 134.86C 84.44601 134.86 84.63601 134.685 84.80501 133.788L84.80501 133.788L85.51101 128.26599C 85.69201 128.09799 85.15201 127.911995 84.80501 127.911995C 83.73601 127.74799 83.38401 127.74799 83.213005 129.15999L83.213005 129.15999L82.855 128.98499L83.213005 127.19698L89.23601 128.26598L88.885 130.053zM79.905 128.857C 79.905 128.496 80.079 127.79099 79.905 127.425995C 79.905 127.075 79.554 126.893 79.208 126.893L79.208 126.893L79.208 126.542C 79.725 126.714 80.267 126.893 80.621 126.893C 81.153 126.893 81.68 127.076 82.213005 127.076L82.213005 127.076L82.032005 127.24799C 81.843 127.24799 81.32201 127.24799 81.15301 127.60899C 80.96701 127.96299 80.96701 128.67099 80.796005 129.036L80.796005 129.036L80.437004 132.416C 80.267006 132.777 80.267006 133.66 80.267006 133.847C 80.267006 134.376 80.621 134.376 80.968 134.376L80.968 134.376L80.968 134.737C 80.437004 134.548 80.079 134.548 79.555 134.376C 79.017 134.376 78.67 134.376 78.142 134.19301L78.142 134.19301L78.142 134.018C 78.486 134.018 78.834 134.018 79.017 133.66C 79.208 133.485 79.374 132.591 79.374 132.244L79.374 132.244L79.905 128.857zM122.683 123.518L120.03 121.737L121.091995 124.769L122.683 123.518zM110.735 132.107L108.428 129.97499L108.962 133.008L110.735 132.107zM121.265 125.474C 121.265 126.006996 121.626 126.901 121.805 127.255C 122.16 127.612 122.513 127.255 122.683 127.076L122.683 127.076L122.866 127.433C 122.683 127.612 122.339 127.797 121.98399 127.973C 121.80499 128.134 121.44199 128.324 121.26499 128.685L121.26499 128.685L121.09099 128.324C 121.441986 127.97301 121.441986 127.798004 121.441986 127.255005C 121.09099 126.364006 120.91099 125.65201 120.74099 124.941L120.74099 124.941L119.32099 120.313L119.49099 120.12701L124.64199 123.699005C 124.81199 123.871 125.51599 124.411 125.70099 124.411C 126.04799 124.587006 126.40899 124.411 126.76599 124.228004L126.76599 124.228004L126.76599 124.586006C 126.40899 124.768005 126.04699 124.94 125.70099 125.29401C 125.34999 125.65101 124.98899 125.83401 124.64199 126.19101L124.64199 126.19101L124.46399 126.00501C 124.64199 125.833015 124.98799 125.472015 124.81199 125.11401C 124.64199 124.93801 124.28799 124.766014 124.10399 124.585014L124.10399 124.585014L123.04799 123.86901L121.09099 125.293015L121.265 125.474zM112.404 126.764C 111.875 126.578 111.511 126.578 111.165 126.947L111.165 126.947L110.984 126.579C 111.338 126.407005 111.511 126.407005 111.696 126.053C 111.875 126.053 112.227 125.878 112.404 125.699005L112.404 125.699005L119.32 128.016L117.367 125.33301C 117.013 124.98601 116.662994 124.268005 116.301994 123.91701C 115.78099 123.560005 115.59 123.73801 115.065994 123.91701L115.065994 123.91701L114.884995 123.73801C 115.23899 123.559006 115.59 123.37701 115.954994 123.201004C 116.12799 122.841 116.301994 122.672005 116.662994 122.479004L116.662994 122.479004L116.84 122.671005C 116.662994 123.02801 116.301994 123.02801 116.486 123.559006C 116.664 123.91601 117.368004 124.80701 117.731 125.33201L117.731 125.33201L120.560005 129.26302L120.383 129.43501C 120.02901 129.43501 119.678 129.26302 119.32101 129.07802L119.32101 129.07802L112.934006 126.946014L115.240005 130.14702C 115.42801 130.51102 115.95601 131.04102 116.302 131.39502C 116.663 131.57802 117.014 131.39502 117.367004 131.20901L117.367004 131.20901L117.367004 131.39502C 117.188 131.75902 116.840004 131.93501 116.485 132.10703C 116.128 132.28203 115.955 132.46103 115.589 132.82202L115.589 132.82202L115.425995 132.64302C 115.77999 132.28203 115.953995 132.10703 115.77999 131.57802C 115.58899 131.21002 115.23799 130.68301 114.88399 130.31902L114.88399 130.31902L112.404 126.764zM109.147 133.892C 109.147 134.246 109.317 135.144 109.494 135.666C 109.675 136.027 110.192 135.842 110.373 135.666L110.373 135.666L110.553 135.842C 110.193 136.028 110.03 136.20299 109.675 136.38899C 109.318 136.56099 108.963005 136.736 108.786 136.911L108.786 136.911L108.603004 136.735C 108.962006 136.388 109.147 136.203 108.962006 135.491C 108.962006 134.775 108.785 133.89099 108.603004 133.18L108.603004 133.18L107.716 128.36899L108.077 128.36899L112.677 132.46098C 112.863 132.64299 113.394005 133.17998 113.745 133.35098C 114.094 133.53098 114.453 133.35098 114.634 133.35098L114.634 133.35098L114.811005 133.53098C 114.454 133.70598 113.924 133.89098 113.56801 134.24597C 113.21701 134.42497 112.67701 134.59998 112.32501 134.95798L112.32501 134.95798L112.14601 134.60098C 112.50301 134.60098 112.863014 134.24698 112.67701 133.89198C 112.503006 133.70598 112.32401 133.35199 111.97101 133.18098L111.97101 133.18098L111.087006 132.46199L108.962006 133.53099L109.147 133.892z" stroke="none" fill="#FFFFFF" fill-rule="nonzero" />
	<g transform="matrix(1 0 0 1 0 0)">
	</g>
    <path transform="matrix(1 0 0 1 0 0)"  d="M18.779 83.35C 18.307999 81.919 17.765999 80.215 17.598999 79.655L17.598999 79.655L17.495998 79.308L21.564999 76.993996C 21.130999 74.909 20.839998 73.036995 20.678999 71.29199L20.678999 71.29199L16.093998 70.34699L16.081999 69.98899C 16.046999 69.009995 16.046999 64.97599 16.081999 63.99599L16.081999 63.99599L16.093998 63.638992L20.677998 62.693993C 20.839998 60.881992 21.130997 59.009995 21.561998 56.99399L21.561998 56.99399L19.305998 55.728992L20.847998 55.54999L22.593998 56.52899L22.520998 56.85799C 22.029999 59.08799 21.713999 61.13099 21.553997 63.10699L21.553997 63.10699L21.526997 63.44599L16.979996 64.38299C 16.956995 65.58999 16.956995 68.39199 16.979996 69.59899L16.979996 69.59899L21.526997 70.53599L21.554996 70.873985C 21.712997 72.76698 22.028997 74.81199 22.522997 77.125984L22.522997 77.125984L22.591997 77.45198L18.573997 79.73598C 18.763998 80.352974 19.084997 81.362976 19.404997 82.34398L19.404997 82.34398L18.779 83.35zM26.886 96.639C 27.284 97.189 27.65 97.691 27.904 98.028L27.904 98.028L32.096 96.124L32.319 96.373C 33.625 97.842 35.095 99.301 36.813 100.833L36.813 100.833L37.062 101.054L35.154 105.289C 36.097 106.015 38.371 107.656 39.361 108.333L39.361 108.333L42.762 105.209L43.053 105.384C 44.877003 106.471 46.781002 107.435005 48.714 108.249L48.714 108.249L49.028 108.382L48.507 112.996C 49.663 113.399 52.321 114.262 53.478 114.612L53.478 114.612L55.731 110.591L56.061 110.664C 58.242 111.144005 60.345 111.471 62.31 111.629L62.31 111.629L62.649002 111.656L63.587 116.203995C 64.163 116.215 65.126 116.22199 66.208 116.22199C 67.283 116.22199 68.235 116.21499 68.801 116.203995L68.801 116.203995L69.702 111.698L70.037 111.667C 72.316 111.442 74.36 111.113 76.287 110.664L76.287 110.664L76.618004 110.587L78.908005 114.612C 80.088005 114.258 82.753006 113.399 83.882 112.999L83.882 112.999L83.361 108.42L83.67 108.283C 85.642 107.424995 87.536995 106.45 89.298996 105.383995L89.298996 105.383995L89.588 105.20899L93.029 108.33599C 94.012 107.66999 96.27 106.00799 97.228 105.28599L97.228 105.28599L95.286995 101.08899L95.54299 100.86399C 97.272995 99.35999 98.74099 97.89399 100.02699 96.37999L100.02699 96.37999L100.24899 96.11999L104.48899 98.03099C 105.21699 97.08799 106.856995 94.815994 107.53599 93.82699L107.53599 93.82699L104.41199 90.42299L104.58599 90.13199C 105.65499 88.33699 106.61899 86.443985 107.44999 84.50499L107.44999 84.50499L107.58399 84.19599L112.19799 84.68299C 112.607994 83.52199 113.48399 80.87499 113.79299 79.74499L113.79299 79.74499L109.79299 77.45199L109.86599 77.12599C 110.35699 74.89299 110.67299 72.84899 110.83199 70.87699L110.83199 70.87699L110.85999 70.536995L115.41499 69.59899C 115.46199 68.40199 115.46199 65.58799 115.41599 64.38999L115.41599 64.38999L110.85999 63.484993L110.83199 63.143993C 110.645996 60.913994 110.30999 58.814995 109.83299 56.905994L109.83299 56.905994L109.74999 56.571995L113.787994 54.274994C 113.45799 53.107994 112.59799 50.427994 112.201 49.308994L112.201 49.308994L107.579994 49.864994L107.44799 49.544994C 106.66899 47.645996 105.70599 45.742996 104.58599 43.889996L104.58599 43.889996L104.40999 43.597996L107.539986 40.190994C 106.86298 39.177994 105.21399 36.894993 104.46499 35.954994L104.46499 35.954994L100.290985 37.902992L100.06599 37.643993C 98.67499 36.046993 97.208984 34.578995 95.57799 33.156994L95.57799 33.156994L95.32199 32.933994L97.232994 28.730995C 96.284996 27.990995 94.01599 26.316996 93.00099 25.647995L93.00099 25.647995L89.62799 28.777996L89.33599 28.603996C 87.510994 27.515997 85.60499 26.551996 83.67499 25.738997L83.67499 25.738997L83.361984 25.606997L83.88299 21.014996C 82.76899 20.596996 80.09199 19.734995 78.914986 19.402996L78.914986 19.402996L76.65498 23.436996L76.319984 23.357996C 74.18598 22.850996 72.14598 22.524996 70.07899 22.356997L70.07899 22.356997L69.74099 22.329996L68.8 17.807C 68.23801 17.786 67.279 17.772999 66.193 17.772999C 65.109 17.772999 64.151 17.786 63.589 17.807L63.589 17.807L62.685 22.327L62.345 22.355C 60.113003 22.542 58.014 22.876999 56.107002 23.354L56.107002 23.354L55.774002 23.437L53.443 19.401001C 52.294003 19.733002 49.64 20.595001 48.505 21.015001L48.505 21.015001L49.026 25.605001L48.712 25.737001C 46.812 26.531002 44.920002 27.494001 43.089 28.600002L43.089 28.600002L42.799 28.775002L39.361 25.649002C 38.883 25.979002 38.108 26.536001 37.326 27.106003L37.326 27.106003L37.472 25.877003C 38.201 25.350002 38.847 24.893003 39.154 24.692003L39.154 24.692003L39.447998 24.500004L42.907997 27.647003C 44.585 26.652002 46.309998 25.774004 48.045 25.030003L48.045 25.030003L47.521 20.425003L47.841 20.295004C 48.79 19.908005 52.59 18.676004 53.545998 18.429005L53.545998 18.429005L53.880997 18.342005L56.217995 22.390005C 57.984993 21.968004 59.900993 21.661005 61.925995 21.478004L61.925995 21.478004L62.832996 16.941004L63.177998 16.917004L63.178997 16.917004L63.188995 16.916004L63.196995 16.916004L63.207996 16.915005L63.208996 16.915005L63.218994 16.915005L63.218994 16.914005L63.516994 16.893005C 63.516994 16.893005 63.527996 16.892006 63.531994 16.892006L63.531994 16.892006L63.612995 16.886005L63.612995 16.887005C 63.635994 16.886005 63.644997 16.886005 63.644997 16.886005L63.644997 16.886005L63.993996 16.886005C 64.63899 16.871006 65.474 16.865005 66.190994 16.865005C 67.285995 16.865005 68.65299 16.879005 69.204994 16.918005L69.204994 16.918005L69.548996 16.942005L70.49 21.479006C 72.378 21.647005 74.251 21.947006 76.193 22.393005L76.193 22.393005L78.462 18.345005L78.798 18.429005C 79.80499 18.680004 83.642 19.916004 84.548 20.299006L84.548 20.299006L84.85999 20.431005L84.33799 25.033005C 86.09899 25.789005 87.83199 26.668005 89.50499 27.649004L89.50499 27.649004L92.88799 24.509005L93.18099 24.685005C 94.07399 25.221004 97.31999 27.623005 98.078995 28.244005L98.078995 28.244005L98.35 28.465006L96.427 32.695007C 97.901 33.99701 99.245 35.342007 100.522 36.788006L100.522 36.788006L104.709 34.835007L104.934 35.09601C 105.586 35.85201 107.951 39.126007 108.495995 39.99701L108.495995 39.99701L108.67899 40.291008L105.535995 43.71201C 106.543 45.40801 107.423 47.14301 108.15399 48.87901L108.15399 48.87901L112.79999 48.32101L112.92599 48.651012C 113.276985 49.56201 114.50198 53.374012 114.75599 54.385014L114.75599 54.385014L114.84099 54.720013L110.79399 57.02201C 111.21699 58.78901 111.52199 60.70401 111.70599 62.727013L111.70599 62.727013L116.27799 63.634014L116.301994 63.979015C 116.370995 64.96501 116.370995 69.02001 116.301994 70.00501L116.301994 70.00501L116.27799 70.348015L111.70599 71.28902C 111.54499 73.10101 111.25399 74.974014 110.81999 76.99402L110.81999 76.99402L114.83099 79.29602L114.757996 79.62202C 114.534996 80.62801 113.252 84.45302 112.92799 85.32602L112.92799 85.32602L112.80699 85.65902L108.15099 85.16902C 107.381 86.93302 106.50399 88.65702 105.535995 90.30602L105.535995 90.30602L108.684 93.73502L108.491 94.03002C 107.938995 94.87502 105.604 98.11102 104.976 98.87902L104.976 98.87902L104.755 99.14902L100.494995 97.22802C 99.297 98.610016 97.951 99.95302 96.394 101.32302L96.394 101.32302L98.354996 105.56202L98.06999 105.78302C 97.29199 106.38702 94.07099 108.76302 93.21999 109.29702L93.21999 109.29702L92.92899 109.48002L89.47399 106.33802C 87.85399 107.29802 86.12899 108.18902 84.33699 108.98202L84.33699 108.98202L84.86099 113.60302L84.53299 113.72902C 83.622986 114.07702 79.80599 115.30302 78.81199 115.58702L78.81199 115.58702L78.46899 115.68602L76.15799 111.62502C 74.38599 112.024025 72.51199 112.32302 70.456985 112.536026L70.456985 112.536026L69.54698 117.09103L69.18698 117.106026C 68.64098 117.12402 67.28898 117.13003 66.20298 117.13003C 65.11898 117.13003 63.75898 117.123024 63.19398 117.106026L63.19398 117.106026L62.836983 117.09103L61.892982 112.509026C 60.085983 112.344025 58.170982 112.04603 56.191982 111.621025L56.191982 111.621025L53.91498 115.68503L53.56998 115.58603C 52.62598 115.31603 48.82098 114.08503 47.85498 113.72803L47.85498 113.72803L47.52098 113.606026L48.045982 108.953026C 46.28498 108.19602 44.54898 107.315025 42.877983 106.33803L42.877983 106.33803L39.44998 109.48603L39.154984 109.29303C 38.308983 108.73903 35.071983 106.40403 34.304985 105.77603L34.304985 105.77603L34.034985 105.55503L35.958984 101.28803C 34.416985 99.89903 33.071983 98.56603 31.861984 97.227036L31.861984 97.227036L27.620983 99.15604L27.400984 98.868034C 27.190985 98.59804 26.778984 98.03703 26.303984 97.38503L26.303984 97.38503L26.886 96.639z" stroke="none" fill="#FFFFFF" fill-rule="nonzero" />
	<g transform="matrix(1 0 0 1 0 0)">
	</g>
    <path transform="matrix(1 0 0 1 0 0)"  d="M66.137 103.875C 60.763 103.875 55.573 102.739 50.707 100.499L50.707 100.499L50.054 100.197L66.182 79.899L81.943 100.347L81.291 100.638C 76.569 102.757 71.329 103.875 66.137 103.875zM51.834 99.77C 56.361 101.74799 61.167 102.746994 66.136 102.746994C 70.931 102.746994 75.767 101.76599 80.173004 99.895996L80.173004 99.895996L66.169 81.73L51.834 99.77zM92.77 92.6L78.448 71.008L102.772995 62.335003L102.84899 63.045002C 104.00299 73.649 100.50699 84.23 93.25599 92.074005L93.25599 92.074005L92.77 92.6zM80.186 71.586L92.912994 90.772C 99.454994 83.406006 102.671 73.68001 101.800995 63.878006L101.800995 63.878006L80.186 71.586zM39.324 92.287L38.845 91.754005C 31.699001 83.813 28.320002 73.19401 29.571001 62.620003L29.571001 62.620003L29.655 61.908L53.942 70.951004L39.324 92.287zM30.613 63.468C 29.654001 73.244995 32.762 83.006 39.208 90.461L39.208 90.461L52.195 71.504L30.613 63.468zM73.789 56.591L73.053 30.755L73.752 30.901999C 84.231995 33.106 93.211 39.712997 98.391 49.027L98.391 49.027L98.738 49.652L73.789 56.591zM74.22 32.16L74.876 55.118L97.048996 48.951C 92.1 40.458 83.845 34.386 74.22 32.16zM58.621 56.565L33.851997 49.255997L34.208996 48.635998C 39.542995 39.371998 48.588997 32.882996 59.025993 30.829998L59.025993 30.829998L59.727993 30.690998L58.621 56.565zM35.55 48.582L57.556 55.075L58.54 32.083C 48.952 34.17 40.639 40.136 35.55 48.582z" stroke="none" fill="#FFFFFF" fill-rule="nonzero" />
	<g transform="matrix(1 0 0 1 0 0)">
	</g>
    <path transform="matrix(1 0 0 1 0 0)"  d="M66.176 33.47L58.384003 55.707L58.261 56.056L57.892002 56.065L34.311005 56.635L53.054005 70.912L53.348003 71.135L53.243004 71.489L46.490005 94.134995L65.872 80.73L66.174 80.520004L66.479004 80.73L85.894005 94.134L79.143005 71.560005L79.038 71.20801L79.333 70.98201L98.076996 56.63701L74.533 56.10001L74.160995 56.09101L74.038994 55.74401L66.176 33.47zM57.497 55.007L65.67 31.685L66.173 30.25L66.67899 31.682L74.923 55.042L99.618996 55.605L101.13899 55.64L99.93299 56.563L80.273 71.608L87.354004 95.285L87.791 96.740005L86.539 95.878006L66.175 81.817L45.846 95.878L44.596 96.74L45.03 95.284996L52.112 71.536995L32.452 56.564L31.243 55.642998L32.764 55.606L57.497 55.007z" stroke="none" fill="#FFFFFF" fill-rule="nonzero" />
	<g transform="matrix(1 0 0 1 0 0)">
	</g>
    <path transform="matrix(1 0 0 1 0 0)"  d="M22.658 104.549L22.662 104.556L22.658 104.549" stroke="none" fill="#FFFFFF" fill-rule="nonzero" />
	<g transform="matrix(1 0 0 1 0 0)">
	</g>
    <path transform="matrix(1 0 0 1 0 0)"  d="M20.529 100.211L22.658 104.549L20.529 100.211" stroke="none" fill="#FFFFFF" fill-rule="nonzero" />
</g>
</svg>